<svg width="140" height="29" viewBox="0 0 140 29" fill="none" xmlns="http://www.w3.org/2000/svg">
<path d="M15.8589 8.07934C16.3668 8.07934 16.7823 8.266 17.1054 8.63934C17.4286 8.98778 17.5902 9.43578 17.5902 9.98334V26.1113C17.5902 26.6589 17.4286 27.1193 17.1054 27.4927C16.7823 27.8411 16.3668 28.0153 15.8589 28.0153C15.3741 28.0153 14.9586 27.8411 14.6123 27.4927C14.2892 27.1193 14.1276 26.6589 14.1276 26.1113V23.4233L14.8547 23.5353C14.8547 23.9833 14.6816 24.4811 14.3353 25.0287C14.0122 25.5762 13.562 26.1113 12.9849 26.634C12.4078 27.1318 11.7268 27.5549 10.9419 27.9033C10.1571 28.2269 9.31451 28.3887 8.41422 28.3887C6.8214 28.3887 5.39018 27.9531 4.12054 27.082C2.85091 26.186 1.84674 24.9665 1.10805 23.4233C0.369348 21.8802 0 20.1256 0 18.1593C0 16.1433 0.369348 14.3762 1.10805 12.858C1.84674 11.3149 2.83937 10.1078 4.08592 9.23667C5.35555 8.36556 6.76369 7.93 8.31034 7.93C9.30296 7.93 10.2148 8.10423 11.0458 8.45267C11.8999 8.80112 12.6386 9.24912 13.2619 9.79667C13.8852 10.3442 14.3584 10.9291 14.6816 11.5513C15.0279 12.1487 15.201 12.7211 15.201 13.2687L14.1276 13.3807V9.98334C14.1276 9.46067 14.2892 9.01267 14.6123 8.63934C14.9586 8.266 15.3741 8.07934 15.8589 8.07934ZM8.79511 24.954C9.88007 24.954 10.8381 24.6553 11.6691 24.058C12.5001 23.4607 13.1465 22.6518 13.6082 21.6313C14.0699 20.586 14.3007 19.4287 14.3007 18.1593C14.3007 16.8651 14.0699 15.7078 13.6082 14.6873C13.1465 13.6669 12.5001 12.858 11.6691 12.2607C10.8381 11.6633 9.88007 11.3647 8.79511 11.3647C7.73323 11.3647 6.78678 11.6633 5.95574 12.2607C5.14779 12.858 4.50143 13.6669 4.01666 14.6873C3.55498 15.7078 3.32414 16.8651 3.32414 18.1593C3.32414 19.4287 3.55498 20.586 4.01666 21.6313C4.50143 22.6518 5.14779 23.4607 5.95574 24.058C6.78678 24.6553 7.73323 24.954 8.79511 24.954Z" fill="white"/>
<path d="M26.1808 26.1113C26.1808 26.6589 26.0077 27.1193 25.6614 27.4927C25.3382 27.8411 24.9343 28.0153 24.4495 28.0153C23.9647 28.0153 23.5492 27.8411 23.2029 27.4927C22.8798 27.1193 22.7182 26.6589 22.7182 26.1113V2.29267C22.7182 1.74512 22.8913 1.29712 23.2376 0.948671C23.5838 0.575338 23.9994 0.388672 24.4841 0.388672C24.992 0.388672 25.396 0.575338 25.696 0.948671C26.0192 1.29712 26.1808 1.74512 26.1808 2.29267V26.1113Z" fill="white"/>
<path d="M35.0741 26.1113C35.0741 26.6589 34.901 27.1193 34.5547 27.4927C34.2315 27.8411 33.8276 28.0153 33.3428 28.0153C32.858 28.0153 32.4425 27.8411 32.0963 27.4927C31.7731 27.1193 31.6115 26.6589 31.6115 26.1113V2.29267C31.6115 1.74512 31.7846 1.29712 32.1309 0.948671C32.4771 0.575338 32.8927 0.388672 33.3774 0.388672C33.8853 0.388672 34.2893 0.575338 34.5894 0.948671C34.9125 1.29712 35.0741 1.74512 35.0741 2.29267V26.1113Z" fill="white"/>
<path d="M43.4827 26.1113C43.4827 26.6589 43.3211 27.1193 42.9979 27.4927C42.6747 27.8411 42.2592 28.0153 41.7513 28.0153C41.2666 28.0153 40.8511 27.8411 40.5048 27.4927C40.1816 27.1193 40.02 26.6589 40.02 26.1113V10.1327C40.02 9.58512 40.1816 9.13712 40.5048 8.78867C40.8511 8.41534 41.2666 8.22867 41.7513 8.22867C42.2592 8.22867 42.6747 8.41534 42.9979 8.78867C43.3211 9.13712 43.4827 9.58512 43.4827 10.1327V26.1113ZM41.7167 5.76467C41.0473 5.76467 40.5625 5.64023 40.2624 5.39134C39.9623 5.11756 39.8123 4.66956 39.8123 4.04734V3.45C39.8123 2.82778 39.9739 2.39223 40.297 2.14334C40.6202 1.89445 41.105 1.77001 41.7513 1.77001C42.4439 1.77001 42.9402 1.90689 43.2403 2.18067C43.5404 2.42956 43.6904 2.85267 43.6904 3.45V4.04734C43.6904 4.69445 43.5288 5.14245 43.2056 5.39134C42.9056 5.64023 42.4092 5.76467 41.7167 5.76467Z" fill="white"/>
<path d="M57.5242 7.93C59.1632 7.93 60.4328 8.30334 61.3331 9.05001C62.2334 9.77178 62.8567 10.7549 63.2029 11.9993C63.5723 13.2189 63.757 14.5878 63.757 16.106V26.1113C63.757 26.6589 63.5838 27.1193 63.2376 27.4927C62.9144 27.8411 62.5104 28.0153 62.0256 28.0153C61.5178 28.0153 61.1023 27.8411 60.7791 27.4927C60.4559 27.1193 60.2943 26.6589 60.2943 26.1113V16.1433C60.2943 15.2473 60.1789 14.4509 59.9481 13.754C59.7172 13.0322 59.3132 12.4598 58.7361 12.0367C58.1821 11.5887 57.3973 11.3647 56.3815 11.3647C55.4351 11.3647 54.6041 11.5887 53.8884 12.0367C53.1728 12.4598 52.6073 13.0322 52.1917 13.754C51.7993 14.4509 51.6031 15.2473 51.6031 16.1433V26.1113C51.6031 26.6589 51.43 27.1193 51.0837 27.4927C50.7605 27.8411 50.3565 28.0153 49.8718 28.0153C49.3639 28.0153 48.9484 27.8411 48.6252 27.4927C48.302 27.1193 48.1405 26.6589 48.1405 26.1113V10.282C48.1405 9.73445 48.302 9.28645 48.6252 8.938C48.9484 8.56467 49.3639 8.37801 49.8718 8.37801C50.3565 8.37801 50.7605 8.56467 51.0837 8.938C51.43 9.28645 51.6031 9.73445 51.6031 10.282V12.3727L50.9798 12.746C51.1414 12.1985 51.4184 11.6509 51.8109 11.1033C52.2264 10.5309 52.7227 10.0082 53.2998 9.53534C53.8769 9.03756 54.5233 8.65178 55.2389 8.37801C55.9545 8.07934 56.7163 7.93 57.5242 7.93Z" fill="white"/>
<path d="M77.0481 0.426005C77.4867 0.426005 77.9368 0.488227 78.3985 0.612671C78.8602 0.737116 79.2411 0.948671 79.5412 1.24734C79.8644 1.52112 80.026 1.90689 80.026 2.40467C80.026 2.90245 79.8875 3.31312 79.6105 3.63667C79.3334 3.93534 79.0103 4.08467 78.6409 4.08467C78.4101 4.08467 78.0984 4.03489 77.706 3.93534C77.3136 3.81089 76.9211 3.74867 76.5287 3.74867C75.9978 3.74867 75.5707 3.88556 75.2475 4.15934C74.9243 4.40823 74.6935 4.73178 74.555 5.13C74.4165 5.50334 74.3472 5.87667 74.3472 6.25001V26.1113C74.3472 26.6589 74.1741 27.1193 73.8278 27.4927C73.5047 27.8411 73.1007 28.0153 72.6159 28.0153C72.1081 28.0153 71.6925 27.8411 71.3694 27.4927C71.0462 27.1193 70.8846 26.6589 70.8846 26.1113V6.28734C70.8846 4.57001 71.404 3.16378 72.4428 2.06867C73.5047 0.97356 75.0398 0.426005 77.0481 0.426005ZM77.7406 8.71401C78.2023 8.71401 78.5832 8.87578 78.8833 9.19934C79.1834 9.52289 79.3334 9.93356 79.3334 10.4313C79.3334 10.9291 79.1834 11.3398 78.8833 11.6633C78.5832 11.9869 78.2023 12.1487 77.7406 12.1487H68.7724C68.3338 12.1487 67.9529 11.9869 67.6297 11.6633C67.3296 11.3398 67.1796 10.9291 67.1796 10.4313C67.1796 9.93356 67.3296 9.52289 67.6297 9.19934C67.9529 8.87578 68.3338 8.71401 68.7724 8.71401H77.7406Z" fill="#D4A373"/>
<path d="M96.3742 8.37801C96.859 8.37801 97.263 8.56467 97.5862 8.938C97.9324 9.28645 98.1056 9.73445 98.1056 10.282V20.1007C98.1056 22.6891 97.4361 24.7176 96.0972 26.186C94.7583 27.6296 92.8654 28.3513 90.4185 28.3513C87.9946 28.3513 86.1133 27.6296 84.7744 26.186C83.4586 24.7176 82.8007 22.6891 82.8007 20.1007V10.282C82.8007 9.73445 82.9623 9.28645 83.2855 8.938C83.6086 8.56467 84.0241 8.37801 84.532 8.37801C85.0168 8.37801 85.4207 8.56467 85.7439 8.938C86.0902 9.28645 86.2633 9.73445 86.2633 10.282V20.1007C86.2633 21.7185 86.6096 22.9256 87.3021 23.722C88.0177 24.5185 89.0565 24.9167 90.4185 24.9167C91.8036 24.9167 92.8539 24.5185 93.5695 23.722C94.2851 22.9256 94.6429 21.7185 94.6429 20.1007V10.282C94.6429 9.73445 94.8045 9.28645 95.1277 8.938C95.4509 8.56467 95.8664 8.37801 96.3742 8.37801Z" fill="#D4A373"/>
<path d="M112.304 7.93C113.943 7.93 115.213 8.30334 116.113 9.05001C117.013 9.77178 117.637 10.7549 117.983 11.9993C118.352 13.2189 118.537 14.5878 118.537 16.106V26.1113C118.537 26.6589 118.364 27.1193 118.018 27.4927C117.694 27.8411 117.29 28.0153 116.806 28.0153C116.298 28.0153 115.882 27.8411 115.559 27.4927C115.236 27.1193 115.074 26.6589 115.074 26.1113V16.1433C115.074 15.2473 114.959 14.4509 114.728 13.754C114.497 13.0322 114.093 12.4598 113.516 12.0367C112.962 11.5887 112.177 11.3647 111.162 11.3647C110.215 11.3647 109.384 11.5887 108.669 12.0367C107.953 12.4598 107.387 13.0322 106.972 13.754C106.579 14.4509 106.383 15.2473 106.383 16.1433V26.1113C106.383 26.6589 106.21 27.1193 105.864 27.4927C105.541 27.8411 105.137 28.0153 104.652 28.0153C104.144 28.0153 103.728 27.8411 103.405 27.4927C103.082 27.1193 102.921 26.6589 102.921 26.1113V10.282C102.921 9.73445 103.082 9.28645 103.405 8.938C103.728 8.56467 104.144 8.37801 104.652 8.37801C105.137 8.37801 105.541 8.56467 105.864 8.938C106.21 9.28645 106.383 9.73445 106.383 10.282V12.3727L105.76 12.746C105.921 12.1985 106.198 11.6509 106.591 11.1033C107.006 10.5309 107.503 10.0082 108.08 9.53534C108.657 9.03756 109.303 8.65178 110.019 8.37801C110.735 8.07934 111.496 7.93 112.304 7.93Z" fill="#D4A373"/>
<path d="M138.269 0.388672C138.777 0.388672 139.192 0.562894 139.515 0.911339C139.838 1.25978 140 1.72023 140 2.29267V26.1113C140 26.6589 139.838 27.1193 139.515 27.4927C139.192 27.8411 138.777 28.0153 138.269 28.0153C137.784 28.0153 137.368 27.8411 137.022 27.4927C136.699 27.1193 136.537 26.6589 136.537 26.1113V23.4233L137.265 23.4607C137.265 23.9087 137.091 24.4189 136.745 24.9913C136.422 25.5389 135.972 26.074 135.395 26.5967C134.818 27.1193 134.137 27.5549 133.352 27.9033C132.567 28.2269 131.724 28.3887 130.824 28.3887C129.231 28.3887 127.8 27.9531 126.53 27.082C125.261 26.186 124.257 24.9789 123.518 23.4607C122.779 21.9176 122.41 20.1505 122.41 18.1593C122.41 16.1682 122.779 14.4136 123.518 12.8953C124.257 11.3522 125.249 10.1451 126.496 9.274C127.765 8.37801 129.173 7.93 130.72 7.93C131.69 7.93 132.59 8.10423 133.421 8.45267C134.275 8.80112 135.014 9.24912 135.637 9.79667C136.26 10.3442 136.745 10.9291 137.091 11.5513C137.438 12.1487 137.611 12.7211 137.611 13.2687L136.537 13.3807V2.29267C136.537 1.74512 136.699 1.29712 137.022 0.948671C137.368 0.575338 137.784 0.388672 138.269 0.388672ZM131.205 24.954C132.313 24.954 133.271 24.6553 134.079 24.058C134.91 23.4607 135.556 22.6518 136.018 21.6313C136.48 20.6109 136.71 19.4536 136.71 18.1593C136.71 16.8651 136.48 15.7078 136.018 14.6873C135.556 13.6669 134.91 12.858 134.079 12.2607C133.248 11.6633 132.29 11.3647 131.205 11.3647C130.143 11.3647 129.197 11.6633 128.366 12.2607C127.558 12.858 126.911 13.6669 126.426 14.6873C125.965 15.7078 125.734 16.8651 125.734 18.1593C125.734 19.4536 125.965 20.6109 126.426 21.6313C126.911 22.6518 127.558 23.4607 128.366 24.058C129.197 24.6553 130.143 24.954 131.205 24.954Z" fill="#D4A373"/>
</svg>
