<svg width="20" height="20" viewBox="0 0 20 20" fill="none" xmlns="http://www.w3.org/2000/svg">
<path d="M9.99996 4.99019L9.5834 5.3911C9.6924 5.50433 9.84279 5.56831 9.99996 5.56831C10.1571 5.56831 10.3075 5.50433 10.4165 5.3911L9.99996 4.99019ZM8.01587 14.8732C6.84755 13.9522 5.57003 13.0528 4.55656 11.9116C3.5629 10.7927 2.86975 9.48709 2.86975 7.79329H1.7135C1.7135 9.848 2.56951 11.4154 3.69201 12.6793C4.79469 13.921 6.20034 14.9144 7.30005 15.7813L8.01587 14.8732ZM2.86975 7.79329C2.86975 6.13533 3.8066 4.74498 5.0854 4.16043C6.32776 3.59255 7.99707 3.74293 9.5834 5.3911L10.4165 4.58928C8.53422 2.63367 6.34936 2.31135 4.60471 3.10883C2.89651 3.88966 1.7135 5.70274 1.7135 7.79329H2.86975ZM7.30005 15.7813C7.6949 16.0925 8.11877 16.4244 8.54833 16.6755C8.97776 16.9264 9.46778 17.1303 9.99996 17.1303V15.974C9.76131 15.974 9.48049 15.881 9.13169 15.6772C8.78304 15.4735 8.42135 15.1929 8.01587 14.8732L7.30005 15.7813ZM12.6999 15.7813C13.7996 14.9144 15.2052 13.921 16.3079 12.6793C17.4304 11.4154 18.2864 9.848 18.2864 7.79329H17.1302C17.1302 9.48709 16.437 10.7927 15.4434 11.9116C14.4299 13.0528 13.1524 13.9522 11.9841 14.8732L12.6999 15.7813ZM18.2864 7.79329C18.2864 5.70274 17.1034 3.88966 15.3952 3.10883C13.6505 2.31135 11.4657 2.63367 9.5834 4.58928L10.4165 5.3911C12.0028 3.74293 13.6721 3.59255 14.9145 4.16043C16.1933 4.74498 17.1302 6.13533 17.1302 7.79329H18.2864ZM11.9841 14.8732C11.5785 15.1929 11.2169 15.4735 10.8682 15.6772C10.5194 15.881 10.2386 15.974 9.99996 15.974V17.1303C10.5321 17.1303 11.0222 16.9264 11.4516 16.6755C11.8812 16.4244 12.305 16.0925 12.6999 15.7813L11.9841 14.8732Z" fill="#253439"/>
</svg>
