<svg width="236" height="215" viewBox="0 0 236 215" fill="none" xmlns="http://www.w3.org/2000/svg">
<g clip-path="url(#clip0_219_5715)">
<path d="M1.58643 209.507C1.3111 209.232 1.33732 209.861 0.839096 195.729C0.65554 190.498 0.52443 185.844 0.563764 185.372C0.629319 184.389 0.996429 183.51 1.59954 182.894C2.03221 182.448 3.12043 181.832 3.46132 181.832C3.63176 181.832 3.65799 180.941 3.71043 175.251C3.74976 170.269 3.80221 168.513 3.93332 168.08C4.2611 167.005 5.30999 166.232 6.46376 166.232C6.80465 166.232 6.83087 166.192 6.76532 165.878C6.52932 164.763 5.99176 156.491 5.78199 150.697C5.62465 146.777 5.70332 131.766 5.88687 129.065C6.2671 123.428 6.81776 118.945 7.39465 116.664C8.35176 112.875 10.2398 110.358 12.6391 109.663C14.1075 109.23 15.6284 109.715 16.7167 110.948L17.3067 111.616L17.464 111.171C17.7131 110.436 18.5522 108.876 19.0898 108.142C20.178 106.661 22.1053 105.717 23.4164 106.045C24.8062 106.399 25.7764 107.133 26.3927 108.313L26.7204 108.929L27.3498 107.788C28.2151 106.254 29.854 104.59 31.1389 103.96C31.8862 103.593 32.2402 103.501 33.1055 103.462C34.4822 103.397 35.4131 103.724 36.2915 104.603L36.9209 105.232L37.4191 104.262C39.766 99.7258 45.1415 99.2801 47.0689 103.462C47.4753 104.34 47.5147 104.55 47.5671 105.927C47.6195 107.513 47.5802 107.828 46.9509 110.581C45.7184 115.995 44.8138 122.72 44.6171 128.056L44.5384 130.206L45.9675 128.777C48.1964 126.561 50.9498 124.595 53.5589 123.336C54.7127 122.786 54.7651 122.773 56.05 122.773C57.5578 122.786 58.2133 123.009 59.1442 123.848C60.298 124.897 60.7831 126.168 60.6651 127.872C60.5864 129.21 60.2849 130.009 59.118 131.963C55.9844 137.193 54.0833 140.943 52.4182 145.059C51.802 146.58 50.9498 148.953 50.8186 149.49L50.7269 149.858L51.33 149.451C52.6935 148.507 54.7127 147.786 56.3778 147.629L57.23 147.55L57.3087 146.108C57.4004 144.601 57.584 143.919 58.174 142.909C59.2491 141.074 61.2682 139.894 63.3398 139.881C64.6115 139.881 66.7093 140.615 67.6271 141.376C67.8369 141.572 68.0467 141.716 68.086 141.716C68.1122 141.716 68.2695 141.375 68.4269 140.956C69.0431 139.239 70.3673 137.744 71.9931 136.931C73.1207 136.354 74.7595 136.014 75.8478 136.132L76.6738 136.21L76.6475 135.201C76.6344 133.955 76.9622 133.182 77.8275 132.422C78.5093 131.832 79.3222 131.569 80.24 131.648C80.6989 131.701 80.8955 131.661 80.8955 131.556C80.8955 131.465 80.7775 130.639 80.6333 129.708C80.1875 126.784 79.4533 120.439 79.4533 119.508C79.4533 119.443 78.706 119.417 77.6833 119.469C75.52 119.561 71.9669 119.377 70.2887 119.089C66.4078 118.433 64.2444 117.45 62.1991 115.431C61.1764 114.409 60.9142 114.068 60.3898 112.993C59.4195 111 59.118 109.597 59.0393 106.753C58.9344 103.501 59.2491 100.866 60.3898 95.2029C63.9429 77.4392 69.4627 62.5465 75.8215 53.5533C80.476 46.959 85.3927 43.2752 91.2533 41.9773C92.6693 41.6627 96.524 41.6758 98.1367 42.0036C100.143 42.41 102.909 43.3801 104.902 44.3895L105.505 44.6911L107.196 43.9307C109.229 43.013 110.881 42.4493 112.677 42.056C114.473 41.6627 118.157 41.6365 119.836 41.9904C129.459 44.0487 137.286 53.3304 143.79 70.3993C146.818 78.3831 149.808 89.5789 151.42 99.1097C152.01 102.531 152.128 104.078 152.05 106.753C151.971 109.611 151.656 111.053 150.699 113.006C150.175 114.055 149.899 114.435 148.89 115.431C146.622 117.673 143.803 118.787 139.109 119.312C137.68 119.469 131.845 119.508 131.4 119.377C131.164 119.299 131.137 119.377 131.046 120.243C130.692 124.058 130.18 128.108 129.721 130.875L129.63 131.36H130.193C131.15 131.36 131.78 131.635 132.501 132.343C133.156 132.998 133.471 133.706 133.471 134.558C133.471 134.86 133.484 134.873 133.969 134.742C134.808 134.506 137.195 134.69 138.388 135.07C140.944 135.909 142.78 137.6 143.436 139.724C143.567 140.13 143.724 140.471 143.776 140.458C143.842 140.458 144.248 140.287 144.681 140.091C148.575 138.282 153.046 139.475 154.698 142.778C155.236 143.853 155.419 144.836 155.327 146.161L155.249 147.262L155.865 147.183C159.536 146.724 162.512 146.79 165.2 147.406C167.154 147.852 168.071 148.179 169.854 149.058C174.024 151.129 177.157 154.472 179.727 159.624C182.585 165.353 184.224 172.524 185.024 182.75C185.247 185.634 185.247 197.918 185.024 201.431C184.736 205.993 184.46 209.14 184.329 209.389C184.041 209.926 183.11 209.782 182.952 209.166C182.913 208.983 182.939 208.052 183.018 207.108C183.805 197.997 183.87 187.81 183.215 180.456C181.484 160.948 174.758 150.238 163.246 148.665C161.057 148.363 157.124 148.533 154.436 149.032C153.741 149.163 153.348 149.058 153.138 148.665C153.02 148.442 153.059 148.219 153.348 147.511C153.649 146.803 153.715 146.423 153.728 145.518C153.728 144.535 153.675 144.312 153.348 143.643C152.233 141.441 149.585 140.353 146.871 140.995C145.953 141.218 144.72 141.795 143.79 142.451C142.623 143.29 142.19 143.027 142.098 141.402C142.006 139.947 141.613 139.108 140.577 138.151C138.65 136.381 135.398 135.686 133.445 136.643C132.462 137.128 132.265 137.351 131.216 139.226C129.446 142.398 126.299 146.921 125.106 148.035C123.73 149.32 122.012 149.753 120.281 149.254C118.131 148.638 112.795 145.007 110.264 142.451C109.806 141.979 109.373 141.585 109.307 141.585C109.255 141.585 109.058 141.9 108.901 142.28C108.73 142.647 107.904 144.404 107.065 146.161L105.544 149.359V153.672C105.544 157.802 105.531 157.986 105.282 158.235C104.954 158.562 104.469 158.576 104.194 158.261C104.01 158.064 103.971 157.409 103.892 153.646L103.801 149.254L102.463 146.239C100.116 140.969 100.038 140.838 99.8542 141.087C99.356 141.756 96.1831 145.125 95.2784 145.951C92.3284 148.612 90.2307 149.805 88.2902 149.949C85.8384 150.12 84.5011 149.15 81.9575 145.387C80.7907 143.67 79.5582 141.611 78.4831 139.593C77.8669 138.426 77.6702 138.177 77.3162 138.046C76.5558 137.77 75.4151 137.665 74.5104 137.797C71.6653 138.203 69.7511 140.405 69.5151 143.552C69.4364 144.548 69.3971 144.679 69.1087 144.81C68.6367 145.046 68.2958 144.85 67.8238 144.037C66.1849 141.258 61.9893 140.668 60.1144 142.962C59 144.312 58.5804 146.174 59.0524 147.563C59.3278 148.363 59.3147 148.612 59.0131 148.914C58.8033 149.123 58.5673 149.163 57.584 149.176C55.0929 149.176 52.8771 150.054 50.9629 151.785C50.5695 152.139 50.1762 152.453 50.0975 152.479C49.7829 152.584 48.9438 156.648 48.5898 159.808C48.4718 160.778 48.3538 162.495 48.3013 163.623L48.2095 165.668L48.9831 165.76C50.4384 165.93 51.4742 166.704 51.7626 167.857C51.8938 168.329 52.0511 175.172 52.0511 179.931V181.504L52.7067 181.74C53.9522 182.186 54.6471 183.051 54.9355 184.52C55.1191 185.503 55.2764 202.559 55.1322 206.531C55.0535 208.956 55.0142 209.284 54.7913 209.507C54.4767 209.822 54.0833 209.822 53.7818 209.52C53.5589 209.297 53.5458 208.786 53.572 199.911C53.5982 188.086 53.5195 184.847 53.1655 184.126C52.8115 183.405 52.1822 183.117 50.9629 183.117C41.8507 183.078 4.1431 183.327 3.74976 183.432C3.06799 183.602 2.42554 184.258 2.22887 184.965C2.12399 185.385 2.15021 187.233 2.34687 193.015C2.50421 197.144 2.68776 202.48 2.76643 204.892L2.92376 209.271L2.62221 209.52C2.2551 209.822 1.9011 209.822 1.58643 209.507ZM49.3895 181.491L50.4647 181.4L50.386 174.963C50.3073 167.883 50.3073 167.857 49.5207 167.529C49.2847 167.425 48.8651 167.359 48.5767 167.372C48.2882 167.372 38.7302 167.477 27.3367 167.595C15.9431 167.7 6.42443 167.831 6.18843 167.87C5.37554 168.015 5.36243 168.185 5.3231 174.478C5.30999 177.545 5.3231 180.443 5.34932 180.901L5.41487 181.74L26.8647 181.649C38.6646 181.609 48.7995 181.531 49.3895 181.491ZM25.5011 166.035C31.5584 165.996 38.7958 165.93 41.6015 165.878L46.6755 165.799V164.606C46.6755 161.84 47.0951 158.13 47.7507 154.957C49.2847 147.511 52.2346 140.353 57.1775 132.068C57.9511 130.77 58.7115 129.328 58.8689 128.856C59.7211 126.352 58.174 124.071 55.7747 124.32C53.3229 124.569 47.554 128.829 45.2071 132.12L44.4335 133.221L44.5122 134.768C44.604 136.223 44.5909 136.328 44.3286 136.59C44.014 136.905 43.5027 136.944 43.2273 136.669C42.9258 136.368 42.8209 134.545 42.9258 130.743C43.1093 123.271 43.8566 117.096 45.5086 109.702C46.2691 106.268 46.1904 104.721 45.194 103.41C43.896 101.718 41.5491 101.784 39.8447 103.567C38.8089 104.668 38.0484 106.412 37.17 109.794C35.9244 114.54 35.1247 120.098 34.2331 130.363C33.8135 135.109 33.7742 135.293 33.0793 135.293C32.7909 135.293 32.2533 134.886 32.2533 134.663C32.2533 134.178 33.1187 124.91 33.3809 122.576C33.9971 116.978 34.9149 111.747 35.7933 108.693L36.1867 107.329L35.8326 106.674C35.3869 105.887 34.5871 105.166 33.9971 105.061C32.0698 104.694 29.8933 106.32 28.4773 109.152C27.14 111.813 25.8289 118.447 25.1078 126.05C24.9111 128.226 24.3867 135.07 24.3867 135.542C24.3867 135.909 23.9409 136.341 23.5607 136.341C23.3902 136.341 23.1411 136.223 23.01 136.079C22.7871 135.83 22.774 135.686 22.9313 133.418C23.4951 124.844 24.2555 118.617 25.252 114.16C25.9207 111.197 25.4093 108.824 23.9409 107.959C21.4891 106.517 18.998 109.833 17.7 116.27C17.0182 119.64 16.5855 123.769 16.4544 128.213C16.402 129.551 16.3495 130.966 16.3233 131.36C16.2971 131.753 16.2709 133.326 16.2709 134.847C16.2578 137.915 16.2184 138.085 15.4711 138.085C14.6451 138.085 14.6451 138.137 14.7369 132.605C14.8549 124.726 15.3138 119.548 16.2709 115.208C16.5593 113.937 16.5593 113.924 16.3102 113.386C15.7727 112.18 15.3662 111.695 14.6058 111.341C14.0551 111.092 13.7667 111.04 13.3995 111.105C11.682 111.42 10.1873 113.19 9.26954 115.995C8.35177 118.774 7.6831 124.425 7.34221 132.212C7.19799 135.502 7.27665 149.228 7.46021 152.991C7.74865 158.72 8.11576 164.055 8.33865 165.681L8.41732 166.245L11.4591 166.179C13.1242 166.14 19.4438 166.074 25.5011 166.035ZM89.1818 148.14C91.1353 147.537 94.3344 144.889 97.704 141.1C99.1724 139.448 99.1331 139.606 98.1367 138.976C97.1927 138.386 80.83 133.195 79.8991 133.195C78.9944 133.195 78.2733 134.021 78.2733 135.096C78.2733 135.66 78.4307 136.04 79.6369 138.321C81.2102 141.271 82.3247 143.145 83.7275 145.138C84.9469 146.868 85.7467 147.694 86.5989 148.088C87.3987 148.468 88.0804 148.481 89.1818 148.14ZM122.93 147.629C123.756 147.249 124.346 146.659 125.591 144.941C127.951 141.677 129.695 138.872 131.072 136.132L131.937 134.401L131.688 133.903C131.531 133.588 131.255 133.287 130.954 133.129L130.469 132.867L129.249 133.182C125.46 134.152 113.398 138.072 111.641 138.898C111.143 139.134 110.579 139.488 110.409 139.671L110.081 140.012L110.933 140.877C112.257 142.241 114.25 143.866 116.099 145.112C119.967 147.708 121.501 148.271 122.93 147.629ZM106.266 144.076C107.039 142.451 107.839 140.759 108.062 140.327C108.626 139.147 109.556 138.177 110.618 137.626C112.061 136.866 123.297 133.116 127.388 132.028L127.925 131.884L128.266 129.747C129.197 124.005 129.538 120.229 129.63 114.802C129.721 109.427 129.564 109.833 131.36 109.951C135.805 110.24 139.922 105.992 139.253 101.81C138.807 99.0441 136.474 96.4877 133.615 95.6487C133.17 95.5176 132.409 95.4389 131.609 95.4389C130.429 95.4389 130.311 95.4127 130.141 95.1505C129.984 94.9014 129.944 93.3676 129.852 86.3276C129.8 81.6475 129.748 77.6621 129.734 77.4786C129.721 77.295 129.695 76.4691 129.695 75.6301L129.669 74.1093L128.2 73.8865C121.606 72.8901 115.352 69.7176 110.592 64.9587C108.612 62.9792 106.62 60.3572 105.544 58.3121C105.361 57.9581 105.19 57.6828 105.151 57.6828C105.112 57.6959 104.732 58.1679 104.299 58.7447C102.673 60.9209 99.9198 63.6609 97.6122 65.3783C92.5382 69.1539 86.848 71.5136 80.9087 72.2871C80.0958 72.392 79.4009 72.51 79.3615 72.5362C79.3353 72.5755 79.4533 76.4298 79.65 81.0968C80.2269 95.57 80.2138 95.085 80.0564 95.4389C79.9122 95.7667 79.8991 95.7667 77.7489 95.8453C75.8609 95.8978 75.4675 95.9633 74.6284 96.2517C71.7178 97.3005 70.0133 99.6734 70.0133 102.715C70.0133 104.616 70.6164 106.136 71.862 107.447C73.3698 109.021 75.3233 109.689 77.9324 109.558C78.7322 109.519 79.5058 109.44 79.6631 109.401C79.8204 109.348 80.0433 109.414 80.2269 109.558C80.5022 109.781 80.5153 109.925 80.6333 112.613C80.8955 118.525 81.42 124.176 82.2198 129.459L82.6393 132.212L84.8158 132.854C89.4047 134.204 98.3989 137.246 99.0544 137.665C100.68 138.675 101.244 139.527 103.198 143.919C103.997 145.741 104.718 147.183 104.771 147.131C104.823 147.078 105.505 145.702 106.266 144.076Z" fill="#1A1D22"/>
<path d="M11.1052 143.316C10.738 142.909 10.8298 142.437 11.3543 142.005C12.1409 141.362 14.5272 139.999 16.1398 139.278C18.8932 138.045 21.9743 137.22 25.1603 136.853C26.9303 136.656 31.506 136.774 33.158 137.062C35.9376 137.547 38.7303 138.426 41.1034 139.566C43.0307 140.497 43.1618 140.589 43.1094 141.166C43.0831 141.533 42.9914 141.69 42.7292 141.808C42.4145 141.965 42.2178 141.9 40.5003 141.074C37.4716 139.619 34.6658 138.819 31.2045 138.426C29.4869 138.229 25.5798 138.347 23.8623 138.635C19.8765 139.304 16.2447 140.694 13.0325 142.778C11.7607 143.604 11.446 143.696 11.1052 143.316Z" fill="#1A1D22"/>
<path d="M102.988 106.202C100.903 105.612 98.8708 103.921 97.9793 102.059C97.5335 101.102 97.5073 101.01 97.6908 100.696C97.8482 100.421 97.9793 100.355 98.3988 100.355C98.9102 100.355 98.9233 100.368 99.3297 101.207C100.129 102.859 101.598 104.104 103.355 104.642C104.076 104.852 104.482 104.904 105.335 104.852C107.76 104.694 109.714 103.278 110.789 100.906C111.195 100.014 111.471 99.8175 112.047 100.027C112.506 100.211 112.572 100.709 112.244 101.548C111.405 103.737 109.268 105.612 106.855 106.254C105.885 106.517 103.971 106.49 102.988 106.202Z" fill="#1A1D22"/>
<path d="M102.136 97.0121C101.821 96.6975 101.821 97.2087 102.136 91.9648C102.28 89.592 102.516 85.7639 102.66 83.4697C102.87 79.9301 102.935 79.2484 103.132 79.0386C103.42 78.7109 103.906 78.724 104.246 79.0648C104.496 79.3139 104.509 79.445 104.443 80.402C104.155 84.4398 103.552 95.2029 103.617 95.2685C103.67 95.3078 104.915 95.0456 106.384 94.6654C107.865 94.2984 109.137 93.9968 109.216 93.9968C109.438 93.9968 109.871 94.5081 109.871 94.7703C109.871 95.3996 109.53 95.5438 106.003 96.4221C104.128 96.8941 102.555 97.2743 102.503 97.2743C102.437 97.2743 102.28 97.1563 102.136 97.0121Z" fill="#1A1D22"/>
<path d="M111.104 86.9044C110.54 86.2751 111.012 84.4004 112.008 83.2861C113.096 82.0931 114.958 81.6343 116.453 82.198C117.934 82.7486 119.075 84.2038 119.259 85.7507C119.337 86.3931 119.311 86.5242 119.062 86.7733C118.721 87.1142 118.249 87.1273 117.974 86.8257C117.856 86.6946 117.725 86.3145 117.685 85.9736C117.489 84.6757 116.256 83.509 115.076 83.509C114.394 83.509 113.385 84.0727 112.952 84.6888C112.742 84.9904 112.572 85.4754 112.506 85.9212C112.349 87.0748 111.68 87.5468 111.104 86.9044Z" fill="#1A1D22"/>
<path d="M90.3618 86.8388C90.1258 86.6684 90.0734 86.5111 90.0734 85.8949C90.0734 83.8367 92.158 81.8047 94.2689 81.8047C96.2749 81.8047 98.2678 83.5614 98.53 85.5672C98.6087 86.144 98.5825 86.2751 98.3465 86.5111C98.2023 86.6553 97.9269 86.7864 97.7696 86.7864C97.4287 86.7864 97.0223 86.4193 97.0223 86.1178C97.0223 85.187 96.0914 83.9416 95.1211 83.5614C93.6003 82.9846 91.9351 84.0989 91.6598 85.8818C91.5811 86.3538 91.45 86.6553 91.2534 86.8126C90.8994 87.101 90.742 87.101 90.3618 86.8388Z" fill="#1A1D22"/>
<path d="M144.537 209.651C143.96 209.271 143.685 207.029 142.649 194.68C142.059 187.627 141.849 185.45 141.508 182.986C141.298 181.399 141.298 181.308 141.521 181.059C141.639 180.927 141.993 180.77 142.308 180.731C143.632 180.521 145.573 179.276 146.753 177.834C147.592 176.824 148.536 175.238 148.995 174.084C149.663 172.367 149.886 171.174 149.952 168.775C150.017 166.507 149.939 165.261 149.506 162.535C149.296 161.184 149.296 161.119 149.532 160.856C149.834 160.529 150.306 160.516 150.634 160.843C151.079 161.289 151.578 164.96 151.591 167.936C151.591 170.413 151.368 172.065 150.765 173.888C149.532 177.598 146.792 180.81 143.934 181.885C142.964 182.252 143.003 181.898 143.409 185.503C143.567 186.906 143.96 191.219 144.288 195.073C144.917 202.506 145.324 206.675 145.533 207.789C145.743 208.891 145.704 209.323 145.376 209.546C145.061 209.769 144.76 209.808 144.537 209.651Z" fill="#1A1D22"/>
<path d="M184.893 89.9067C184.775 89.7887 184.736 88.0189 184.736 82.7619C184.736 75.8662 184.736 75.7744 184.473 75.7744C184.277 75.7744 184.211 75.6826 184.211 75.4467C184.211 75.132 184.172 75.1189 183.477 75.1189C182.389 75.1189 179.753 75.4073 179.753 75.5384C179.753 75.5909 178.35 75.6302 176.633 75.604C173.211 75.5778 173.067 75.604 173.067 76.3119C173.067 76.5217 173.132 76.6921 173.198 76.6921C173.276 76.6921 173.329 77.0592 173.329 77.5442C173.329 78.0293 173.276 78.3964 173.198 78.3964C173.132 78.3964 173.067 78.4881 173.067 78.593C173.067 78.6979 173.132 78.7897 173.198 78.7897C173.408 78.7897 173.368 81.5034 173.172 81.582C173.04 81.6345 173.04 81.6607 173.172 81.6607C173.355 81.6738 173.394 82.5915 173.211 82.5915C173.145 82.5915 173.119 83.8893 173.158 85.7378C173.224 88.1762 173.198 88.9235 173.067 89.0808C172.896 89.2775 171.952 89.3561 171.847 89.1857C171.808 89.1201 171.742 84.5711 171.703 79.0518C171.664 73.5326 171.585 67.0695 171.546 64.6704C171.467 60.3836 171.467 60.3311 171.729 60.1869C171.874 60.1083 172.201 60.0427 172.45 60.0427H172.909L173.054 61.0653C173.145 61.747 173.172 63.8445 173.119 67.5153C173.08 71.1336 173.093 73.0869 173.185 73.3229C173.303 73.6113 173.408 73.6768 173.788 73.6768C174.129 73.6768 174.247 73.7293 174.247 73.8866C174.247 74.0832 174.404 74.0964 175.532 74.0308C176.226 73.9915 178.403 73.8866 180.343 73.8079C182.297 73.7293 184.014 73.6375 184.172 73.5982C184.329 73.572 184.526 73.4147 184.618 73.2704C184.709 73.0869 184.762 70.9631 184.775 66.4272C184.788 62.8089 184.854 59.7674 184.906 59.6887C184.972 59.597 185.273 59.5183 185.601 59.5183H186.178V71.5137C186.178 79.4189 186.217 83.5092 186.309 83.5092C186.388 83.5092 186.44 83.7189 186.44 83.968C186.44 84.2171 186.388 84.4268 186.309 84.4268C186.23 84.4268 186.178 85.3707 186.178 86.9964C186.178 88.504 186.125 89.6576 186.047 89.815C185.889 90.1034 185.155 90.1689 184.893 89.9067Z" fill="#1A1D22"/>
<path d="M191.684 89.723C191.606 89.5394 191.553 89.1592 191.553 88.8708C191.553 88.5038 191.501 88.3595 191.357 88.3595C191.212 88.3595 191.16 88.2022 191.16 87.7696C191.16 87.337 191.212 87.1797 191.357 87.1797C191.461 87.1797 191.553 87.1272 191.553 87.0486C191.553 86.983 191.461 86.9175 191.357 86.9175C191.212 86.9175 191.16 86.7602 191.16 86.262C191.16 85.7638 191.212 85.6065 191.357 85.6065C191.475 85.6065 191.553 85.4885 191.553 85.2788C191.553 85.069 191.475 84.951 191.357 84.951C191.225 84.951 191.16 84.8068 191.16 84.4922C191.16 84.1775 191.225 84.0333 191.357 84.0333C191.527 84.0333 191.553 83.2992 191.553 78.2388C191.553 75.04 191.593 72.0379 191.645 71.5528L191.724 70.6614H192.353H192.995V76.2986C192.995 79.9693 193.035 81.9358 193.127 81.9358C193.205 81.9358 193.258 82.6961 193.258 83.9678C193.258 85.6589 193.297 86.026 193.454 86.0784C193.73 86.1833 193.743 87.573 193.467 87.573C193.336 87.573 193.271 87.8352 193.245 88.5955C193.179 89.7885 193.009 90.0638 192.274 90.0638C191.894 90.0638 191.789 89.9983 191.684 89.723Z" fill="#1A1D22"/>
<path d="M199.8 89.3952C199.564 89.1592 199.525 89.0019 199.577 88.2022C199.643 87.0224 199.879 86.7864 201.006 86.7864C201.662 86.7864 201.819 86.8388 202.095 87.1403C202.318 87.3763 202.449 87.7172 202.514 88.176C202.593 88.8315 202.58 88.8839 202.16 89.2641C201.767 89.6181 201.623 89.6574 200.902 89.6705C200.233 89.6705 200.023 89.6181 199.8 89.3952Z" fill="#1A1D22"/>
<path d="M200.561 80.1398C200.508 80.1004 200.469 75.4989 200.469 69.9404C200.469 61.3273 200.495 59.7934 200.652 59.6623C200.757 59.5706 201.098 59.5181 201.4 59.5443L201.95 59.5837L201.964 69.8355C201.977 78.2651 201.95 80.1136 201.806 80.166C201.544 80.2578 200.666 80.2446 200.561 80.1398Z" fill="#1A1D22"/>
<path d="M191.527 66.7156C191.199 66.4665 191.16 66.3616 191.16 65.6406C191.16 65.1948 191.212 64.7491 191.278 64.6573C191.606 64.1329 192.825 63.9363 193.507 64.3034C193.966 64.5393 194.044 64.7229 194.044 65.5881C194.044 66.1387 193.979 66.3223 193.69 66.6238C193.389 66.9384 193.245 66.9909 192.615 66.9909C192.078 66.9778 191.776 66.9122 191.527 66.7156Z" fill="#1A1D22"/>
<path d="M162.184 121.265C161.568 121.213 160.742 121.082 160.349 120.977C159.956 120.859 159.405 120.728 159.116 120.675C158.408 120.557 158.146 120.361 158.225 120.033C158.343 119.548 158.526 119.417 158.985 119.509C159.326 119.574 159.444 119.535 159.51 119.377C159.602 119.141 160.401 118.879 160.69 118.997C160.795 119.037 160.873 119.01 160.873 118.932C160.873 118.801 162.237 117.857 162.447 117.857C162.512 117.857 162.578 117.817 162.578 117.752C162.578 117.699 162.801 117.542 163.076 117.398C163.338 117.254 163.941 116.729 164.413 116.231C164.885 115.746 165.357 115.3 165.475 115.248C165.764 115.143 166.97 113.714 167.258 113.137C167.39 112.888 167.547 112.639 167.599 112.6C167.862 112.403 169.133 109.86 169.382 109.008C169.474 108.719 169.592 108.365 169.658 108.221C169.723 108.077 169.841 107.644 169.933 107.251C170.051 106.7 170.051 106.53 169.92 106.451C169.802 106.373 169.815 106.32 169.999 106.215C170.222 106.097 170.248 105.901 170.248 104.511C170.248 103.462 170.195 102.885 170.09 102.754C169.999 102.649 169.959 102.531 169.999 102.479C170.13 102.361 169.776 101.43 169.5 101.116C169.186 100.775 167.927 100.434 167.848 100.67C167.796 100.84 167.429 100.866 167.429 100.696C167.429 100.644 166.052 100.552 164.387 100.499C162.709 100.447 161.044 100.342 160.69 100.277C159.772 100.106 159.025 99.4506 158.802 98.6509C158.71 98.3101 158.553 97.943 158.448 97.8381C158.225 97.6153 158.186 97.4055 158.382 97.4055C158.474 97.4055 158.487 96.9991 158.435 96.265C158.304 94.3247 158.146 89.9592 158.133 88.0714C158.133 86.5244 158.107 86.2622 157.923 86.2622C157.766 86.2622 157.727 86.0918 157.727 85.4101C157.727 84.9381 157.766 84.5579 157.832 84.5579C157.884 84.5579 157.923 76.9018 157.923 67.5546C157.923 51.3509 157.936 50.5119 158.159 49.9482C158.461 49.2272 159.287 48.0866 159.47 48.1522C159.549 48.1784 159.733 48.0735 159.903 47.9162C160.152 47.6802 160.388 47.6409 161.739 47.6147C162.604 47.5884 163.312 47.5229 163.338 47.4573C163.364 47.3918 164.072 47.3787 164.964 47.418C166.052 47.4704 166.564 47.4573 166.629 47.3525C166.682 47.2607 167.494 47.1689 168.779 47.1165C170.497 47.0378 170.838 47.0509 170.838 47.2083C170.838 47.3525 170.864 47.3525 170.969 47.1951C171.074 47.0378 171.139 47.0247 171.362 47.1558C171.703 47.3787 172.634 47.3787 172.713 47.1689C172.765 47.0378 172.791 47.0378 172.791 47.1689C172.804 47.3393 173.198 47.3918 173.198 47.2214C173.198 47.1689 174.915 47.1427 177 47.1689C179.137 47.2082 180.802 47.182 180.802 47.1165C180.802 47.0509 182.703 47.0247 185.129 47.0378C188.197 47.0772 189.456 47.0509 189.456 46.9461C189.456 46.8674 189.639 46.8018 189.849 46.8018C190.072 46.8018 190.242 46.8674 190.242 46.9461C190.242 47.0116 190.308 47.0378 190.386 46.9854C190.465 46.9329 192.235 46.9067 194.32 46.9198C196.903 46.9329 198.109 46.9067 198.109 46.815C198.109 46.6314 207.772 46.6183 207.837 46.7887C207.89 46.9329 212.531 47.0509 212.531 46.9067C212.531 46.8412 212.623 46.8018 212.728 46.8018C212.833 46.8018 212.924 46.8674 212.924 46.9461C212.924 47.0378 213.147 47.0772 213.514 47.0378C213.842 47.0116 214.104 47.0509 214.104 47.1034C214.104 47.1689 214.196 47.182 214.301 47.1427C214.419 47.1034 214.537 47.1558 214.576 47.2607C214.629 47.3656 214.708 47.418 214.773 47.3787C214.839 47.3393 214.891 47.3787 214.891 47.4442C214.891 47.5229 214.983 47.5884 215.101 47.5884C215.219 47.5884 215.455 47.9293 215.691 48.4406L216.097 49.2796L216.084 66.2567C216.084 75.604 216.045 84.2564 216.019 85.5018C215.979 86.7473 215.888 90.5098 215.809 93.8659C215.612 102.4 215.652 101.706 215.284 102.453C215.075 102.872 214.747 103.252 214.393 103.502L213.816 103.895L206.657 104.078C202.711 104.183 199.472 104.314 199.446 104.38C199.381 104.511 198.41 104.524 198.345 104.38C198.306 104.288 195.277 104.327 186.007 104.524C183.385 104.59 183.267 104.603 182.952 104.891C182.769 105.062 182.638 105.337 182.638 105.534C182.638 106.019 182.048 108.313 181.694 109.204C180.304 112.744 177.996 115.681 174.666 118.171C173.683 118.919 171.638 120.046 170.51 120.466C168.452 121.226 165.37 121.527 162.184 121.265ZM185.771 89.579C185.942 89.2381 186.047 60.5802 185.876 60.2C185.706 59.8198 185.365 59.8723 185.26 60.3049C185.208 60.4884 185.155 63.5168 185.142 67.0433C185.129 71.0025 185.076 73.5457 184.985 73.69C184.919 73.8211 184.722 73.9653 184.565 73.9915C184.408 74.0308 182.651 74.1226 180.671 74.2012C178.691 74.293 176.305 74.3979 175.361 74.4503C174.43 74.5028 173.473 74.5028 173.237 74.4372L172.818 74.3192L172.804 67.8037C172.804 63.1366 172.752 61.1701 172.647 60.8686C172.477 60.3836 172.424 60.3573 172.123 60.6064C171.926 60.7506 171.913 61.9043 172.031 74.7256C172.162 87.8485 172.175 88.7006 172.398 88.9235C172.621 89.1464 172.647 89.1595 172.857 88.9497C173.093 88.7137 173.093 87.2586 172.87 78.1079L172.804 75.4073L173.88 75.3287C174.483 75.2893 176.004 75.2238 177.262 75.1976C178.521 75.1582 180.724 75.0927 182.14 75.0403C184.159 74.9616 184.775 74.9878 184.932 75.1189C185.103 75.2631 185.129 76.1415 185.129 82.29C185.129 86.8653 185.181 89.3823 185.26 89.5528C185.43 89.8674 185.601 89.8674 185.771 89.579ZM192.878 87.8485C192.891 87.0881 192.878 86.4064 192.864 86.3278C192.838 86.2622 192.799 82.9192 192.773 78.9207C192.746 74.9223 192.694 71.5137 192.668 71.3564C192.55 70.8582 192.117 70.9762 192.025 71.5137C191.973 71.7628 191.947 75.8531 191.947 80.5857C191.96 88.1762 191.986 89.2512 192.17 89.5265L192.379 89.8543L192.615 89.5528C192.825 89.3037 192.864 89.0021 192.878 87.8485ZM201.701 89.0939C202.068 88.7137 202.134 88.5826 202.055 88.2418C201.872 87.3372 201.033 86.9177 200.377 87.3765C200.062 87.5994 199.866 88.3073 200.01 88.74C200.076 88.9759 200.862 89.5134 201.151 89.5396C201.203 89.5396 201.452 89.343 201.701 89.0939ZM201.649 69.8488C201.649 61.2095 201.623 60.0296 201.452 59.964C201.347 59.9116 201.164 59.9509 201.059 60.0427C200.888 60.1869 200.862 61.4848 200.862 69.993C200.862 80.2711 200.862 80.3759 201.413 79.8778C201.636 79.6811 201.649 79.1698 201.649 69.8488ZM193.14 66.5976C193.271 66.5189 193.481 66.2829 193.599 66.0601C193.769 65.7192 193.769 65.5881 193.638 65.2735C193.481 64.8671 192.917 64.4869 192.589 64.5525C192.366 64.6049 191.684 64.8671 191.671 64.9195C191.488 65.9159 191.527 66.047 192.025 66.3878C192.576 66.768 192.76 66.7942 193.14 66.5976Z" fill="#F8BD23"/>
<path d="M185.26 90.2346C184.736 90.0511 184.736 89.9987 184.736 82.5392V75.3157L184.054 75.3551C183.674 75.3682 181.104 75.4731 178.337 75.5648C175.571 75.6697 173.29 75.7746 173.263 75.8008C173.25 75.8139 173.276 78.7636 173.355 82.3295C173.421 85.8953 173.434 88.9368 173.408 89.0941C173.25 89.684 172.175 89.7627 171.965 89.199C171.821 88.8319 171.638 78.4883 171.611 69.2852C171.598 64.6051 171.598 60.6984 171.611 60.6066C171.638 60.3444 172.018 60.0429 172.333 60.0429C172.503 60.0429 172.739 60.1609 172.883 60.3182C173.119 60.5804 173.132 60.9474 173.198 67.3712L173.263 74.1359L173.657 74.1227C181.196 73.8999 184.644 73.7426 184.683 73.6246C184.709 73.5459 184.749 70.4258 184.762 66.6895C184.801 60.1346 184.814 59.8856 185.05 59.702C185.47 59.4005 186.007 59.466 186.257 59.8462C186.453 60.1477 186.466 60.777 186.401 66.7026C186.348 70.2816 186.309 76.9545 186.309 81.5166C186.309 89.6185 186.309 89.802 186.047 90.0642C185.785 90.3264 185.614 90.3657 185.26 90.2346ZM185.785 86.6295C185.785 84.6499 185.824 84.0337 185.955 84.0206C186.086 84.0206 186.086 83.9944 185.955 83.942C185.824 83.8895 185.785 81.3593 185.785 71.8941C185.785 61.5505 185.758 59.9118 185.601 59.9118C185.496 59.9118 185.365 59.9773 185.313 60.056C185.273 60.1346 185.208 63.163 185.181 66.7944C185.155 71.2386 185.103 73.4935 184.998 73.6639C184.919 73.8212 184.722 73.9654 184.565 73.9917C184.408 74.031 182.651 74.1227 180.671 74.2014C178.691 74.2932 176.305 74.3981 175.361 74.4505C173.552 74.5554 172.726 74.4505 172.857 74.1359C172.896 74.031 172.87 73.913 172.805 73.8737C172.726 73.8212 172.687 71.4352 172.687 67.7383C172.7 62.3371 172.647 60.4362 172.451 60.4362C172.424 60.4362 172.267 60.5017 172.123 60.5804C171.861 60.7246 171.861 60.7901 171.939 64.2249C171.979 66.1389 172.057 72.4316 172.097 78.1999C172.136 83.9682 172.228 88.7401 172.293 88.8057C172.359 88.8712 172.49 88.8581 172.608 88.7532C172.805 88.5959 172.818 88.2288 172.739 85.4234C172.687 82.9456 172.7 82.2639 172.831 82.1721C172.962 82.0935 172.962 82.0673 172.844 82.0673C172.739 82.0673 172.673 81.8837 172.673 81.6084C172.673 81.3331 172.739 81.1496 172.844 81.1496C172.949 81.1496 172.936 81.0971 172.805 81.0185C172.634 80.9005 172.634 80.8874 172.805 80.8743C172.962 80.8743 172.962 80.848 172.818 80.7956C172.673 80.7301 172.673 80.7038 172.818 80.6121C172.949 80.5334 172.962 80.4941 172.844 80.4941C172.752 80.4941 172.673 80.4023 172.673 80.2974C172.673 80.1926 172.752 80.1008 172.844 80.0877C172.975 80.0877 172.975 80.0615 172.844 80.009C172.647 79.9304 172.621 79.5764 172.805 79.5764C172.883 79.5764 172.936 79.4846 172.936 79.3798C172.936 79.2749 172.883 79.1831 172.805 79.1831C172.608 79.1831 172.634 78.0032 172.844 77.9901C172.962 77.9901 172.962 77.9639 172.844 77.9115C172.621 77.8328 172.621 77.4788 172.844 77.4657C172.949 77.4657 172.949 77.4395 172.818 77.3871C172.673 77.3215 172.673 77.2953 172.818 77.2035C172.949 77.1249 172.962 77.0856 172.844 77.0856C172.726 77.0856 172.673 76.8496 172.673 76.3252C172.673 75.1453 172.7 75.1322 175.401 75.1322C176.646 75.1322 177.708 75.106 177.774 75.0535C177.839 75.0142 177.944 75.0535 177.997 75.1322C178.062 75.2371 178.115 75.2371 178.18 75.1191C178.259 74.988 178.39 75.0011 178.757 75.1322C179.098 75.2502 179.268 75.2633 179.334 75.1715C179.452 75.0011 181.943 74.7258 183.411 74.7258C184.369 74.7258 184.565 74.7651 184.827 75.0142L185.129 75.2895V82.3295C185.129 87.7307 185.168 89.3956 185.286 89.5136C185.417 89.6447 185.483 89.6316 185.614 89.448C185.745 89.2907 185.785 88.5173 185.785 86.6295Z" fill="#221C08"/>
<path d="M191.894 90.0249L191.58 89.7103L191.566 80.4548L191.54 71.1862L191.868 70.8585C192.261 70.4652 192.471 70.4521 192.851 70.7667L193.14 70.9896L193.179 80.3499L193.218 89.7234L192.917 90.0249C192.537 90.4051 192.274 90.4051 191.894 90.0249ZM192.524 89.5005C192.615 89.4088 192.668 89.2646 192.628 89.1728C192.602 89.0941 192.642 89.0155 192.72 89.0155C192.917 89.0155 192.904 88.6222 192.707 88.6091C192.576 88.6091 192.576 88.5829 192.707 88.5304C192.786 88.5042 192.865 88.3862 192.865 88.2813C192.865 88.1765 192.786 88.0978 192.707 88.0978C192.589 88.0978 192.602 88.0454 192.733 87.9667C192.904 87.8487 192.904 87.8356 192.733 87.8356C192.589 87.8356 192.576 87.8094 192.707 87.7307C192.943 87.5734 192.956 85.8691 192.72 85.7249C192.563 85.6332 192.576 85.6069 192.733 85.6069C192.904 85.6069 192.904 85.5938 192.733 85.4758C192.563 85.3579 192.563 85.3448 192.733 85.3316C192.891 85.3316 192.891 85.3054 192.746 85.253C192.602 85.1874 192.602 85.1612 192.746 85.0694C192.904 84.9777 192.891 84.9515 192.733 84.9515C192.563 84.9515 192.563 84.9383 192.733 84.8204C192.865 84.7417 192.878 84.6893 192.773 84.6893C192.681 84.6893 192.602 84.5975 192.602 84.4926C192.602 84.3877 192.681 84.296 192.773 84.2829C192.878 84.2829 192.878 84.2566 192.746 84.2042C192.602 84.1387 192.602 84.1124 192.746 84.0207C192.904 83.9289 192.891 83.9027 192.733 83.9027C192.563 83.9027 192.563 83.8896 192.733 83.7716C192.904 83.6536 192.904 83.6405 192.733 83.6405C192.563 83.6405 192.563 83.6274 192.733 83.5094C192.904 83.3914 192.904 83.3783 192.733 83.3783C192.563 83.3783 192.563 83.3652 192.733 83.2472C192.904 83.1292 192.904 83.1161 192.733 83.1161C192.563 83.1161 192.563 83.103 192.733 82.985C192.904 82.867 192.904 82.8408 192.733 82.7228C192.563 82.6048 192.563 82.5786 192.733 82.4606C192.865 82.3819 192.878 82.3295 192.773 82.3295C192.642 82.3295 192.602 81.1103 192.602 76.6923C192.602 71.2387 192.589 71.0551 192.353 71.0551C192.143 71.0551 192.091 71.1731 192.038 71.7499C191.934 72.8774 191.986 89.0548 192.104 89.3826C192.222 89.7103 192.288 89.7365 192.524 89.5005Z" fill="#221C08"/>
<path d="M200.312 89.7234C199.577 89.3301 199.355 88.36 199.813 87.5996C200.771 86.0396 203.013 87.1801 202.436 88.9368C202.147 89.8152 201.151 90.1823 200.312 89.7234ZM201.701 88.9106C202.173 88.4911 202.173 88.0716 201.688 87.521C201.085 86.8393 200.115 87.2194 199.984 88.1765C199.931 88.6222 199.971 88.7795 200.194 89.0024C200.587 89.3957 201.19 89.3563 201.701 88.9106Z" fill="#221C08"/>
<path d="M200.757 80.4155L200.469 80.2188V70.1637C200.469 58.981 200.43 59.5185 201.308 59.5185C201.859 59.5185 202.082 59.7807 202.082 60.41C202.082 60.6722 202.082 65.1951 202.068 70.439L202.042 79.9829L201.714 80.2975C201.347 80.6777 201.164 80.7039 200.757 80.4155ZM201.413 79.7731C201.557 79.7207 201.583 77.9509 201.557 69.849C201.544 62.796 201.492 59.9643 201.387 59.9381C201.308 59.9118 201.164 59.9643 201.059 60.0429C200.888 60.1871 200.862 61.5506 200.862 69.9408C200.862 75.2896 200.902 79.7076 200.954 79.7469C201.059 79.8518 201.177 79.8649 201.413 79.7731Z" fill="#221C08"/>
<path d="M192.143 67.0697C191.435 66.755 191.081 66.0209 191.291 65.2605C191.645 64.0413 193.14 63.7398 193.913 64.7361C194.464 65.4309 194.123 66.7288 193.323 67.0697C192.786 67.2925 192.655 67.2925 192.143 67.0697ZM193.284 66.2437C193.638 65.9029 193.73 65.5227 193.573 65.0901C193.468 64.841 192.851 64.5001 192.589 64.5526C192.366 64.605 191.685 64.8672 191.685 64.9197C191.671 64.9459 191.645 65.195 191.606 65.4834C191.527 65.9291 191.567 66.034 191.894 66.2962C192.393 66.6895 192.838 66.6764 193.284 66.2437Z" fill="#221C08"/>
</g>
<defs>
<clipPath id="clip0_219_5715">
<rect width="236" height="215" fill="white"/>
</clipPath>
</defs>
</svg>
