<svg width="236" height="223" viewBox="0 0 236 223" fill="none" xmlns="http://www.w3.org/2000/svg">
<g clip-path="url(#clip0_219_5624)">
<path d="M103.42 230.221C99.8048 228.865 97.3994 219.149 97.2154 205.18C97.084 194.806 98.1224 186.512 100.488 179.192L100.962 177.718L101.448 177.757L101.921 177.797L102.434 179.377C106.679 192.739 109.834 204.983 110.609 211.236C110.899 213.488 110.899 217.938 110.623 219.991C109.965 224.823 108.204 228.733 106.127 229.944C105.404 230.366 104.156 230.484 103.42 230.221Z" fill="white"/>
<path d="M154.13 213.58C152.527 211.131 151.383 209.117 149.648 205.628L148.373 203.087L148.426 201.639C148.491 200.204 148.544 200.006 150.818 192.212C156.181 173.939 158.06 165.987 158.849 158.246C158.98 157.048 159.099 155.995 159.125 155.89C159.165 155.758 159.335 155.732 159.809 155.784C160.15 155.824 161.162 155.929 162.069 156.021C162.976 156.1 163.791 156.192 163.883 156.219C164.002 156.245 164.041 156.719 164.041 157.983C164.041 160.445 164.317 164.723 165.355 178.257C166.709 195.912 167.104 202.481 166.88 203.943C166.722 205.035 165.908 206.01 161.031 210.947C156.746 215.278 156.338 215.647 155.931 215.647C155.51 215.647 155.445 215.568 154.13 213.58Z" fill="white"/>
<path d="M59.6884 172.109C58.2425 167.132 57.559 164.262 57.4802 162.762L57.4013 161.432L57.7825 161.234C57.9928 161.129 59.465 160.616 61.0554 160.089C67.1018 158.088 75.6587 154.955 83.7293 151.795C88.0012 150.11 88.0932 150.083 88.7373 150.083C89.434 150.083 89.8809 150.505 90.4461 151.716C91.6159 154.217 93.6401 161.09 93.5613 162.288L93.5218 162.893L92.4703 163.341C86.2925 166 78.8002 168.962 72.491 171.24C67.5356 173.03 61.5943 174.966 61.0686 174.966H60.5296L59.6884 172.109Z" fill="white"/>
<path d="M60.017 159.207C59.9776 159.076 59.7673 158.325 59.5438 157.522C58.2951 153.085 56.5207 148.333 55.0354 145.41C52.906 141.25 50.724 138.617 47.806 136.734C42.7849 133.456 36.6465 130.441 31.1916 128.585C28.4576 127.637 28.129 127.387 28.129 126.202C28.129 124.477 29.4303 123.885 33.2552 123.885C38.1712 123.885 42.8112 125.149 46.715 127.558C47.3328 127.94 47.6614 128.071 47.7534 127.979C47.9506 127.782 47.6614 127.505 46.6493 126.9C43.613 125.136 40.3926 123.951 37.1328 123.411C36.4099 123.292 34.7274 123.161 33.3998 123.108L30.9813 123.029L30.7053 122.503C30.5344 122.173 30.4161 121.647 30.3898 121.107C30.2846 119.369 31.0996 118.5 33.2552 118C34.4645 117.737 37.5929 117.71 39.4331 117.961C43.166 118.461 47.7797 120.146 50.5926 122.055C51.2104 122.476 51.631 122.687 51.7756 122.634C51.9464 122.568 51.8807 122.463 51.4601 122.081C50.7766 121.489 49.0547 120.449 47.6483 119.79C44.0599 118.105 40.1823 117.131 36.3573 116.947L34.5434 116.868L34.596 116.183C34.6748 115.288 35.0297 114.814 35.9893 114.301C37.1197 113.695 38.1844 113.484 40.1166 113.484C44.2045 113.484 48.6472 114.511 52.5379 116.381C53.8392 116.999 54.1678 117.118 54.2861 116.973C54.4439 116.789 54.4176 116.776 53.4712 116.21C52.8665 115.854 50.5137 114.814 49.3833 114.419C46.9516 113.563 44.0073 112.931 41.5624 112.747L40.3532 112.655V112.155C40.3532 111.575 40.5766 111.312 41.4047 110.93C41.9436 110.68 42.2328 110.654 44.6251 110.654C48.3975 110.667 50.4743 111.062 56.7178 113.01C58.4529 113.55 61.8835 114.603 64.3415 115.367C70.5062 117.276 77.0126 119.145 77.5253 119.145C77.6698 119.145 78.0247 118.737 78.4585 118.079C80.0884 115.617 82.783 113.484 85.1621 112.773C86.1742 112.471 88.2379 112.484 88.8556 112.8C89.3026 113.024 89.3157 113.037 89.3551 113.919C89.3946 114.761 89.3157 115.025 88.2247 118.132C86.4765 123.055 86.1479 124.148 85.4513 127.387C83.9922 134.088 84.1894 140.091 86.1085 147.477C86.3319 148.359 86.4897 149.241 86.4634 149.57C86.4239 150.123 86.4108 150.123 85.6353 150.426C85.2015 150.584 83.2167 151.348 81.2319 152.124C71.5315 155.903 61.5418 159.431 60.5822 159.431C60.2274 159.431 60.0696 159.365 60.017 159.207ZM74.2523 137.05C72.9116 136.036 72.0835 134.641 71.6892 132.719C71.5183 131.863 71.492 131.165 71.5315 129.625C71.5972 127.387 71.8732 126.32 72.583 125.425C72.859 125.07 72.9379 124.872 72.8459 124.78C72.6224 124.556 72.3595 124.741 71.9126 125.412C71.2554 126.413 70.8348 127.927 70.7559 129.585C70.5851 132.824 71.6497 135.615 73.6477 137.195C74.1866 137.629 74.3312 137.682 74.5021 137.55C74.6729 137.406 74.6335 137.34 74.2523 137.05ZM55.8372 132.679C55.9029 132.587 56.008 132.008 56.0606 131.389C56.1789 129.901 56.5732 127.927 56.9939 126.755C57.4802 125.386 58.5317 123.411 59.3598 122.305C60.0433 121.41 60.1353 121.12 59.7542 121.12C59.557 121.12 58.3609 122.753 57.6248 124.017C56.9413 125.188 56.1789 127.097 55.7977 128.611C55.3771 130.27 55.1537 132.232 55.3377 132.574C55.4954 132.877 55.64 132.903 55.8372 132.679Z" fill="white"/>
<path d="M161.478 155.258C159.73 155.086 157.508 154.665 157.206 154.441C156.785 154.138 156.733 153.586 157.009 152.085C157.337 150.294 157.745 149.03 158.047 148.833C158.56 148.504 164.698 148.214 165.224 148.504C165.355 148.57 165.526 148.833 165.605 149.057C165.921 150.07 166.407 153.059 166.407 154.033C166.407 154.928 166.368 155.1 166.157 155.218C165.908 155.337 162.687 155.376 161.478 155.258Z" fill="white"/>
<path d="M158.928 145.858C158.718 143.488 158.323 140.723 157.981 139.288C157.627 137.787 157.232 137.142 156.273 136.523C154.748 135.536 151.488 134.351 149.043 133.904L148.189 133.732L148.031 132.534C147.939 131.863 147.729 130.23 147.558 128.888C143.983 101.82 144.548 83.9678 149.582 65.0362C150.673 60.9154 150.805 60.5073 151.068 60.4547C151.199 60.4283 152.527 60.6126 154.025 60.8759C160.295 61.9555 167.222 62.6796 174.951 63.0614C177.054 63.1667 185.729 63.4563 186.952 63.4563C187.267 63.4563 187.254 63.6538 186.649 66.6686C184.48 77.6748 183.81 82.8751 183.928 87.7462C184.007 91.1692 184.296 92.8543 185.203 95.0529C186.281 97.6728 188.424 99.7397 190.829 100.451C191.302 100.595 191.381 100.674 191.381 100.977C191.381 101.175 190.908 103.255 190.343 105.598C189.041 110.957 189.094 110.654 189.304 110.812C189.396 110.891 190.369 110.983 191.578 111.009C193.55 111.049 193.734 111.075 194.47 111.417C194.904 111.615 195.364 111.891 195.508 112.01C195.903 112.365 196.245 113.234 196.245 113.892C196.258 116.776 193.274 118.895 188.7 119.264C187.819 119.343 187.201 119.448 187.096 119.567C187.004 119.659 186.478 121.963 185.926 124.675C185.387 127.387 184.809 130.178 184.638 130.862L184.349 132.1L183.757 132.218C178.749 133.153 172.204 135.115 169.627 136.431C166.972 137.8 165.868 139.841 164.764 145.41L164.343 147.516L162.911 147.595C162.122 147.648 160.939 147.688 160.282 147.701L159.099 147.714L158.928 145.858ZM165.684 102.228C167.919 101.754 170.455 99.9899 171.73 98.0414C171.914 97.7518 171.928 97.6333 171.809 97.5148C171.678 97.3963 171.573 97.4621 171.297 97.8176C170.613 98.7392 168.957 100.253 168.181 100.661C166.762 101.412 166.092 101.57 164.435 101.57C162.989 101.57 162.884 101.543 162.043 101.135C161.11 100.674 159.966 99.5817 159.427 98.6075C159.138 98.0941 158.875 97.9493 158.718 98.2126C158.586 98.4232 159.546 99.7924 160.361 100.582C161.189 101.385 162.135 101.925 163.252 102.215C164.186 102.465 164.554 102.465 165.684 102.228ZM162.188 91.4851C163.081 91.3271 164.619 91.1823 166 91.1297C167.971 91.0507 168.313 91.0112 168.352 90.8269C168.379 90.6952 168.234 90.5504 167.984 90.4451C167.472 90.2344 164.514 90.3529 162.924 90.6425C162.345 90.7479 161.714 90.84 161.517 90.84C161.189 90.84 161.149 90.8005 161.149 90.3792C161.149 90.1291 161.268 89.6157 161.425 89.2339C163.305 84.468 165.053 77.9776 165.894 72.5667C166.17 70.8157 166.17 70.6709 165.973 70.4602C165.815 70.3154 165.71 70.2891 165.618 70.3812C165.539 70.4602 165.329 71.474 165.158 72.6193C164.304 78.3462 162.411 85.3633 160.439 90.1028C159.979 91.2218 159.874 91.5904 159.993 91.7353C160.085 91.8274 160.255 91.8801 160.413 91.8406C160.571 91.7879 161.36 91.6431 162.188 91.4851ZM159.243 79.1888C159.651 78.7938 159.651 78.5042 159.283 78.1092C158.915 77.7143 158.586 77.7274 158.192 78.1356C157.797 78.5174 157.771 78.8991 158.126 79.2546C158.481 79.6101 158.862 79.5837 159.243 79.1888ZM176.725 79.1888C177.12 78.807 177.146 78.4779 176.791 78.0961C176.436 77.7143 176.068 77.7274 175.674 78.1356C175.279 78.5174 175.253 78.8991 175.608 79.2546C175.963 79.6101 176.344 79.5837 176.725 79.1888Z" fill="white"/>
<path d="M177.527 144.936C176.278 144.646 174.044 142.974 170.048 139.367C168.957 138.393 168.891 138.301 168.931 137.853C168.97 137.406 169.023 137.353 169.943 136.892C173.281 135.246 184.704 132.324 187.254 132.482C188.976 132.574 189.607 133.285 189.515 135.009C189.475 135.799 189.383 136.142 188.923 137.076C187.07 140.828 183.337 144.357 180.629 144.936C179.814 145.107 178.263 145.107 177.527 144.936Z" fill="white"/>
<path d="M146.953 143.87C146.493 143.527 146.204 143.106 145.626 142C143.93 138.722 143.326 135.418 144.285 134.536C144.929 133.917 147.216 134.088 150.936 135.023C152.474 135.404 153.88 135.918 155.274 136.576C156.22 137.037 156.286 137.09 156.286 137.498C156.286 138.261 153.473 141.144 150.647 143.29C149.411 144.212 149.411 144.225 148.478 144.265C147.571 144.317 147.506 144.291 146.953 143.87Z" fill="white"/>
<path d="M118.825 102.623C118.719 102.597 118.154 102.505 117.576 102.426C116.091 102.202 113.988 101.609 112.463 100.991C107.481 98.95 103.038 94.9477 100.488 90.2083C99.6208 88.5889 100.094 88.6943 94.3631 88.8522C81.4554 89.2209 63.3163 88.8391 59.7279 88.1281C56.9281 87.5752 54.5753 85.6136 53.0243 82.5461C52.814 82.1511 52.6431 81.7693 52.6299 81.6903C52.6168 81.6245 52.4854 81.2559 52.3408 80.8873C51.4995 78.7808 50.8949 75.529 50.4874 71.0265C50.0668 66.3002 50.0142 64.931 50.0142 57.4663C50.0142 44.3669 50.4743 39.4563 51.9596 36.5336C52.367 35.7173 53.8524 34.0059 54.2467 33.8874C54.4176 33.8479 54.549 33.7557 54.549 33.6767C54.549 33.6109 54.6542 33.5846 54.7987 33.6372C54.9565 33.6767 55.0748 33.6372 55.1274 33.4924C55.1668 33.3739 55.2982 33.3081 55.3902 33.3476C55.4954 33.3871 55.6531 33.3344 55.7451 33.2291C55.824 33.1238 55.9949 33.0711 56.1132 33.1106C56.3892 33.1896 57.5722 32.979 57.6905 32.821C57.7299 32.7683 58.19 32.7025 58.6895 32.7025C59.2021 32.6893 60.2931 32.6235 61.1212 32.5445C61.9492 32.4655 63.2505 32.3339 64.0129 32.268C64.7753 32.1891 66.6943 32.0442 68.2848 31.9257C69.8753 31.8204 71.5972 31.7019 72.0966 31.6624C78.4716 31.1885 96.0981 30.991 102.789 31.3201C111.622 31.7414 116.34 32.0969 118.496 32.4919C119.153 32.5972 119.837 32.7025 120.047 32.7025C120.244 32.7157 120.402 32.7683 120.402 32.821C120.402 32.8868 120.468 32.8868 120.547 32.8341C120.625 32.7946 120.731 32.7947 120.783 32.8605C120.915 33.058 121.598 33.3213 121.73 33.2423C121.795 33.1896 121.848 33.2291 121.848 33.3081C121.848 33.3871 121.914 33.4134 121.979 33.3739C122.058 33.3344 122.111 33.3608 122.111 33.4397C122.111 33.5187 122.163 33.5582 122.229 33.5187C122.295 33.4661 122.374 33.4924 122.4 33.5582C122.413 33.6241 122.531 33.7031 122.636 33.7294C122.742 33.7557 122.939 33.8742 123.083 34.0059C123.228 34.1243 123.412 34.2297 123.504 34.2297C123.793 34.2297 125.226 35.928 125.699 36.8364C126.882 39.1271 127.382 42.7871 127.776 52.0027C127.934 55.7943 127.868 65.2865 127.644 70.2366C127.132 81.2954 127.027 82.2301 126.146 83.9021C125.647 84.8632 124.477 85.9559 123.399 86.4693C122.019 87.1407 120.901 87.3646 117.944 87.6015C115.525 87.7859 115.341 87.8648 115.21 88.7864C115.157 89.076 115.184 90.1029 115.263 91.0377C115.604 95.4612 116.708 98.397 119.022 100.991C119.797 101.859 119.889 102.123 119.508 102.465C119.272 102.689 119.219 102.702 118.825 102.623ZM107.744 65.2996C109.505 64.4834 110.859 62.5876 110.846 60.9419C110.82 58.5985 108.125 55.8601 105.877 55.8996C103.498 55.926 101.119 58.8092 101.382 61.3237C101.54 62.7851 102.789 64.6282 104.077 65.2865C105.312 65.9184 106.416 65.9184 107.744 65.2996ZM72.399 65.3786C74.5546 64.7993 76.3291 62.5613 76.2502 60.4943C76.2371 59.8624 75.6325 58.5327 75.0673 57.9008C74.1603 56.8607 72.2938 55.9523 71.0582 55.9523C70.125 55.9523 69.0997 56.4131 68.2454 57.203C67.3778 58.0061 66.8915 58.8092 66.5629 59.994C66.2737 61.0473 66.4446 61.9162 67.1544 63.022C67.9168 64.2069 68.9814 64.9968 70.3222 65.3523C71.2423 65.6024 71.5446 65.6024 72.399 65.3786ZM90.7221 65.0758C92.7069 64.1411 93.9688 62.061 93.5876 60.3627C93.1275 58.2957 91.5896 56.6764 89.618 56.1629C88.9476 55.9918 88.7636 55.9918 88.1064 56.1629C86.4502 56.5974 85.0832 57.7296 84.2946 59.3489C83.4665 61.0209 83.7293 62.4164 85.1489 63.8909C86.7131 65.5103 88.8425 65.9579 90.7221 65.0758Z" fill="#F9BD21"/>
<path d="M104.563 64.8785C104.221 64.7863 103.788 64.4835 103.301 63.9832C102.407 63.088 102.131 62.3376 102.131 60.8367C102.144 59.1647 102.854 57.7561 104.064 57.0451C104.642 56.716 104.813 56.6765 105.943 56.6765C107.06 56.6765 107.258 56.716 107.797 57.032C108.572 57.4928 109.44 58.4407 109.794 59.2174C109.992 59.6782 110.071 60.1126 110.071 60.9552C110.084 61.9294 110.031 62.1796 109.716 62.8247C109.308 63.6541 108.546 64.365 107.705 64.7205C107.074 64.9838 105.273 65.0759 104.563 64.8785Z" fill="#F9BD21"/>
<path d="M70.0198 64.6413C69.31 64.457 68.2848 63.7461 67.8379 63.1142C66.7995 61.666 66.9966 59.2831 68.2716 57.8217C68.9157 57.0845 69.7964 56.7422 71.0714 56.7422C72.4515 56.7422 73.3585 57.0713 74.2786 57.9007C75.225 58.7433 75.4484 59.2962 75.4484 60.7576C75.4484 62.0873 75.2513 62.6797 74.5283 63.5091C73.8317 64.299 72.951 64.6677 71.6366 64.7203C71.0188 64.7467 70.2959 64.7072 70.0198 64.6413Z" fill="#F9BD21"/>
<path d="M87.1074 64.5888C85.8981 64.1411 84.9255 63.1538 84.6363 62.0874C84.5574 61.7846 84.518 61.179 84.5706 60.6919C84.7152 59.0989 85.609 57.8613 87.1074 57.1767C87.7515 56.8739 87.9618 56.8476 89.1185 56.9003C90.2358 56.9398 90.4592 56.9924 90.9324 57.2952C91.7079 57.8087 92.1285 58.2958 92.5229 59.112C92.812 59.7308 92.8646 60.0073 92.8646 61.021C92.8515 61.9689 92.7989 62.3112 92.5754 62.7325C92.2468 63.3644 91.4713 64.128 90.8273 64.4571C90.2095 64.7731 87.8304 64.8652 87.1074 64.5888Z" fill="#F9BD21"/>
<path d="M69.0866 235.092C68.8894 234.894 68.7317 234.46 68.574 233.749C68.4688 233.169 67.6933 229.444 66.8521 225.455C66.024 221.479 64.7096 215.133 63.9472 211.368C63.1717 207.603 61.4498 199.216 60.1222 192.739C56.7441 176.401 56.9807 177.638 57.1647 176.967C57.3619 176.269 58.0323 175.585 58.7815 175.335C59.1101 175.216 59.3335 175.058 59.3335 174.953C59.3204 174.847 58.9261 173.439 58.4529 171.806C57.5328 168.686 56.4944 164.579 56.2446 163.17C55.9555 161.472 56.5864 160.366 58.1506 159.879C58.5843 159.734 58.8866 159.576 58.8866 159.457C58.8866 158.996 57.283 153.77 56.3892 151.334C54.1415 145.212 51.5653 140.934 48.7524 138.709C48.1872 138.261 46.7413 137.3 45.5189 136.563C40.432 133.509 36.7516 131.744 31.3888 129.809C30.048 129.322 28.6679 128.769 28.3393 128.572C26.2625 127.347 26.5911 124.425 28.9308 123.358C29.3251 123.187 29.6537 123.042 29.6669 123.029C29.68 123.029 29.5749 122.7 29.4434 122.305C28.6022 119.869 29.9297 117.684 32.69 116.986C33.321 116.828 33.321 116.828 33.3998 116.17C33.5181 115.341 33.6759 114.946 34.1228 114.406C34.8589 113.537 36.7779 112.589 38.2632 112.378C38.8284 112.299 38.881 112.247 39.1702 111.641C39.6565 110.588 40.5109 109.956 41.9436 109.574C42.9426 109.311 45.5189 109.285 47.1225 109.522C50.8029 110.074 52.63 110.548 60.5297 113.023C68.1008 115.393 77.1572 118.053 77.2098 117.934C77.2229 117.908 77.5647 117.447 77.9853 116.894C79.3655 115.051 81.5737 113.181 83.5322 112.194C85.793 111.062 88.6585 111.062 89.8809 112.207C90.9062 113.168 90.8404 113.985 89.4603 117.921C87.16 124.451 86.4108 127.387 85.8982 131.771C85.6616 133.719 85.6353 137.879 85.8325 139.749C86.0953 142.145 86.7526 145.555 87.5412 148.504L87.6727 148.965H88.4876C90.1701 148.965 90.801 149.636 91.9971 152.651C93.0618 155.35 94.0214 158.47 94.6917 161.445C94.7706 161.774 94.8232 161.801 95.4146 161.801C96.2296 161.801 97.084 162.248 97.5572 162.933C97.9909 163.538 99.8969 168.475 101.54 173.228C101.579 173.32 101.895 172.833 102.263 172.135C105.22 166.488 109.019 162.209 113.698 159.233C115.368 158.18 117.55 157.101 119.166 156.535L120.363 156.126L120.441 154.915C120.717 150.874 123.228 147.293 126.435 146.345C127.986 145.897 129.958 146.2 131.312 147.121C131.693 147.372 132.035 147.556 132.1 147.516C132.153 147.49 132.232 147.135 132.284 146.753C132.508 144.831 133.638 142.027 134.769 140.591C136.32 138.643 138.554 137.498 141.446 137.155L142.734 136.997L142.655 136.444C142.616 136.128 142.655 135.589 142.734 135.246C143.115 133.706 144.193 132.942 145.954 132.956C146.927 132.956 146.953 132.956 146.888 132.666C146.809 132.297 146.138 127.031 145.718 123.424C142.852 98.9367 143.707 82.0325 148.715 63.9171C149.109 62.469 149.503 61.0866 149.569 60.8497C149.701 60.4284 149.701 60.4284 148.912 60.0202C147.939 59.5331 147.111 58.73 146.677 57.8611C146.415 57.3082 146.362 57.0054 146.362 56.018C146.362 54.9253 146.401 54.7541 146.809 53.9247C147.295 52.9637 148.347 51.792 149.359 51.0942C150.279 50.4623 152.001 49.6855 153.302 49.3037C156.601 48.369 163.883 47.8687 169.956 48.1715C179.722 48.6718 186.531 50.3701 189.212 52.99C190.159 53.9116 190.527 54.7278 190.527 55.8732V56.7684L191.473 56.6894C193.313 56.5183 195.206 57.0844 196.376 58.1376C197.625 59.2567 198.519 61.2578 198.887 63.7855C199.11 65.26 199.11 69.5519 198.887 71.6188C198.203 77.8986 197.046 83.5992 193.918 95.9745C191.776 104.479 190.593 109.271 190.593 109.482C190.593 109.574 191.053 109.666 191.789 109.732C194.049 109.903 195.469 110.456 196.442 111.536C198.177 113.458 197.506 116.367 194.878 118.329C193.34 119.461 191.171 120.251 189.107 120.422C188.555 120.462 188.043 120.567 187.99 120.646C187.924 120.725 187.569 122.358 187.188 124.28C186.807 126.202 186.321 128.532 186.11 129.454C185.9 130.388 185.729 131.192 185.729 131.244C185.729 131.297 186.163 131.323 186.689 131.297C189.594 131.113 191.421 133.509 190.461 136.26C190.316 136.655 190.211 137.024 190.198 137.063C190.198 137.103 190.671 137.182 191.237 137.234C193.524 137.419 196.126 138.353 197.756 139.578C198.847 140.381 199.728 141.684 200.03 142.948C200.201 143.685 200.293 143.883 200.451 143.817C201.016 143.606 202.212 143.475 203.093 143.541C205.616 143.738 207.956 145.212 209.034 147.293C209.652 148.491 209.836 149.373 209.823 151.018V152.427L211.282 152.835C212.083 153.072 213.503 153.559 214.436 153.928C221.206 156.64 225.938 161.722 228.448 169.002C230.42 174.689 231.235 180.943 231.235 190.369C231.222 199.743 230.525 208.959 228.198 230.313C227.725 234.631 227.686 234.92 227.397 235.157C227.029 235.46 226.845 235.46 226.463 235.144C226.082 234.828 226.069 235.065 226.726 229.009C228.356 214.054 229.145 205.167 229.5 197.61C229.671 193.963 229.671 186.551 229.5 183.852C228.777 172.53 226.253 165.237 221.363 160.353C220.522 159.523 219.313 158.457 218.656 157.996C216.395 156.403 212.754 154.823 209.481 154.02C208.009 153.651 207.851 153.48 208.088 152.335C208.337 151.058 208.193 149.241 207.785 148.346C207.036 146.726 205.393 145.542 203.448 145.212C202.304 145.015 201.2 145.173 200.03 145.7C199.307 146.016 199.255 146.029 198.939 145.818C198.755 145.7 198.611 145.555 198.597 145.502C198.597 145.449 198.584 144.936 198.571 144.357C198.545 143.093 198.151 142.158 197.27 141.302C195.771 139.841 192.972 138.854 190.027 138.735L189.278 138.709L188.529 139.802C187.635 141.131 185.493 143.396 184.296 144.291C183.219 145.12 181.852 145.805 180.734 146.081C179.604 146.371 177.921 146.279 176.87 145.871C175.345 145.278 173.005 143.488 168.287 139.249L167.997 138.999L167.551 139.894C166.933 141.131 166.473 142.658 166 144.989C165.566 147.187 165.539 147.53 165.802 147.622C165.908 147.661 166.144 147.898 166.341 148.162C166.604 148.504 166.775 149.044 167.064 150.439C167.643 153.27 167.761 154.191 167.59 154.81C167.34 155.771 166.433 156.535 165.553 156.535H165.224V157.97C165.224 160.287 165.566 165.605 166.538 178.257C167.813 194.832 168.011 198.045 168.037 201.362L168.05 204.259L167.616 205.141C167.327 205.72 166.736 206.536 165.908 207.445C164.133 209.419 157.508 216.134 156.891 216.581C156.509 216.858 156.233 216.963 155.813 216.963C155.287 216.963 155.208 216.91 154.695 216.278C153.946 215.317 152.435 212.987 151.291 211.039C149.701 208.3 147.506 203.929 147.269 203.021C146.914 201.626 146.848 201.941 150.476 189.448C154.853 174.387 156.838 165.921 157.666 158.641C157.968 155.955 157.968 155.955 157.337 155.758C156.641 155.547 155.957 154.876 155.747 154.191C155.55 153.52 155.694 152.401 156.233 150.347C156.641 148.859 156.956 148.24 157.495 147.911L157.903 147.674L157.811 146.476C157.653 144.317 157.285 141.553 156.93 139.696L156.785 138.999L155.55 140.315C154.222 141.737 151.896 143.764 150.476 144.725C148.754 145.897 147.111 145.7 145.705 144.133C145.061 143.422 143.97 141.302 143.404 139.683C143.234 139.209 143.063 138.775 143.01 138.722C142.852 138.538 140.394 138.88 139.422 139.222C136.057 140.394 134.164 143.448 133.691 148.491C133.494 150.663 133.06 150.86 131.627 149.465C131.115 148.965 130.365 148.398 129.932 148.175C129.248 147.846 128.998 147.78 128.091 147.78C127.184 147.78 126.922 147.832 126.185 148.188C125.055 148.741 124.372 149.36 123.57 150.544C122.492 152.164 121.979 153.954 121.979 156.074C121.979 156.785 121.927 157.206 121.822 157.285C121.73 157.364 121.033 157.614 120.271 157.864C118.588 158.404 115.749 159.8 114.158 160.853C109.702 163.828 106.14 168.015 103.42 173.465L102.368 175.585L103.354 178.665C107.613 191.896 110.649 203.455 111.661 210.315C112.607 216.739 111.845 223.032 109.584 227.429C109.045 228.469 108.677 228.97 107.849 229.812C106.679 230.997 105.93 231.418 104.839 231.537C101.343 231.906 98.5824 227.364 97.1366 218.872C95.4409 208.88 95.625 195.622 97.5966 185.814C98.2275 182.681 99.5288 178.257 100.475 175.993C100.672 175.545 100.554 175.15 98.6481 169.91C96.7159 164.565 96.1376 163.381 95.4409 163.381C95.2963 163.381 93.7453 163.999 91.984 164.75C85.3593 167.58 77.1309 170.793 70.5851 173.096C67.6013 174.137 61.2132 176.256 59.4256 176.796C59.2415 176.849 58.9918 177.033 58.8603 177.217C58.6238 177.533 58.6238 177.586 59.0838 179.771C59.741 182.865 62.6985 197.189 63.5529 201.428C65.6691 211.868 68.9946 227.93 69.8753 232.011C70.4142 234.499 70.4273 234.907 70.033 235.184C69.6387 235.473 69.4415 235.447 69.0866 235.092ZM105.772 229.523C107.81 228.338 109.584 224.362 110.215 219.596C110.491 217.608 110.478 213.724 110.215 211.578C109.755 207.905 108.046 200.309 106.114 193.397C104.576 187.855 101.698 178.455 101.474 178.205C101.238 177.968 99.6997 183.431 99.0556 186.749C98.0304 191.975 97.6492 196.544 97.6492 203.39C97.6492 207.998 97.7675 210.683 98.1355 214.264C99.0162 222.966 101.159 228.838 103.814 229.812C104.418 230.036 105.049 229.944 105.772 229.523ZM165.842 204.996C166.184 204.469 166.433 203.916 166.486 203.548C166.67 202.297 166.276 195.728 164.961 178.652C164.028 166.501 163.66 160.998 163.607 158.18L163.581 156.6L162.398 156.508C161.754 156.442 160.834 156.35 160.387 156.298C159.809 156.219 159.533 156.232 159.506 156.324C159.493 156.403 159.375 157.443 159.243 158.641C158.455 166.369 156.588 174.242 151.225 192.607C149.319 199.124 148.886 200.77 148.833 201.626L148.767 202.692L150.042 205.233C151.791 208.735 152.921 210.736 154.538 213.211L155.931 215.304L160.61 210.578C163.581 207.563 165.5 205.522 165.842 204.996ZM65.4719 173.136C73.674 170.371 81.5737 167.396 89.1842 164.17C90.4198 163.657 91.8 163.078 92.26 162.88C92.7201 162.683 93.1275 162.446 93.1538 162.354C93.2721 162.077 92.3257 158.549 91.3925 155.718C90.4592 152.888 89.6312 151.084 89.1054 150.702C88.6716 150.386 88.8031 150.347 84.1237 152.19C76.0794 155.35 67.4962 158.483 61.4498 160.484C59.8593 161.011 58.3872 161.524 58.1768 161.63C57.7957 161.827 57.7957 161.827 57.8745 162.762C58.0191 164.46 60.7531 174.571 61.0686 174.571C61.1343 174.571 63.1191 173.926 65.4719 173.136ZM63.7632 157.996C68.7449 156.311 74.4101 154.231 80.8376 151.729C82.8224 150.953 84.7941 150.202 85.2278 150.044C85.6484 149.886 86.0296 149.689 86.0559 149.597C86.0953 149.504 85.9376 148.741 85.7141 147.885C83.7688 140.368 83.5585 133.864 85.0569 126.992C85.7536 123.753 86.0822 122.66 87.8304 117.737C89.1711 113.919 89.2237 113.563 88.4613 113.195C87.8698 112.892 86.516 112.879 85.5564 113.168C83.1773 113.879 80.4696 116.012 78.8528 118.474C78.4059 119.158 78.0379 119.58 77.8407 119.632C77.499 119.711 76.4606 119.448 71.6497 118.079C68.7449 117.25 66.5366 116.578 56.3235 113.405C50.2903 111.523 47.9769 111.062 44.6251 111.049C42.6271 111.049 42.3248 111.075 41.799 111.325C41.2076 111.602 40.7475 111.957 40.7475 112.155C40.7475 112.22 41.2864 112.299 41.9568 112.352C45.3612 112.615 49.0547 113.576 52.2488 115.038C54.365 115.999 54.733 116.262 54.7856 116.762C54.8908 117.802 54.2993 117.802 52.1699 116.789C48.4106 114.985 43.797 113.879 40.1166 113.879C37.4746 113.879 35.3583 114.827 35.0297 116.144L34.9509 116.473L36.7648 116.552C41.4573 116.776 46.4127 118.263 50.2903 120.607C51.7887 121.515 52.4985 122.186 52.3802 122.595C52.1699 123.306 51.4864 123.424 50.7503 122.845C50.0142 122.265 49.2256 121.805 47.714 121.054C44.0467 119.211 39.972 118.197 36.2784 118.197C34.2148 118.197 33.0055 118.421 31.9671 119.027C30.7841 119.698 30.4687 120.883 31.1259 122.147L31.3756 122.634L33.7942 122.713C37.2906 122.845 39.6565 123.279 42.5877 124.372C44.5068 125.083 47.3854 126.584 48.082 127.216C48.4632 127.571 48.4632 128.15 48.082 128.414C47.6483 128.716 47.53 128.69 46.3207 127.953C42.1277 125.425 37.1328 124.109 32.4797 124.319C29.9823 124.425 28.8388 124.912 28.5759 125.939C28.3656 126.768 29.0622 127.334 31.1916 128.045C36.5413 129.822 43.1135 133.021 48.2003 136.339C51.1184 138.222 53.3003 140.855 55.4297 145.015C56.915 147.938 58.6895 152.69 59.9382 157.127C60.1616 157.93 60.3719 158.681 60.4114 158.812C60.4508 158.931 60.5297 159.036 60.5823 159.036C60.6348 159.036 62.0676 158.562 63.7632 157.996ZM165.763 154.823C165.96 154.705 166.013 154.547 166.013 153.994C166.013 153.217 165.316 149.583 165.093 149.175C165.014 149.017 164.79 148.859 164.593 148.807C164.002 148.662 158.77 149.004 158.455 149.215C158.126 149.425 157.732 150.689 157.403 152.493C157.193 153.586 157.206 153.678 157.416 153.915C157.745 154.27 158.718 154.481 162.004 154.863C162.924 154.981 165.526 154.942 165.763 154.823ZM163.923 147.069C163.962 147.029 164.172 146.042 164.409 144.883C165.461 139.446 166.578 137.392 169.233 136.036C171.809 134.72 178.355 132.758 183.363 131.823L183.955 131.705L184.244 130.467C184.415 129.783 184.993 126.992 185.532 124.28C186.084 121.568 186.61 119.264 186.702 119.172C186.807 119.053 187.425 118.948 188.305 118.869C191.513 118.619 193.957 117.5 195.127 115.788C196.297 114.077 195.929 112.668 194.115 111.825C193.327 111.47 193.169 111.444 191.145 111.404C188.266 111.338 188.411 111.602 189.278 107.942C189.948 105.151 190.816 101.636 190.934 101.227C190.974 101.083 190.842 100.977 190.435 100.859C189.16 100.477 187.674 99.516 186.689 98.4364C184.77 96.3563 183.771 93.381 183.508 89.0628C183.219 84.1126 183.968 77.8723 186.242 66.3659C186.676 64.1805 186.715 63.8513 186.531 63.8513C185.309 63.8513 176.633 63.5617 174.556 63.4564C166.762 63.0614 159.007 62.2452 153.026 61.1788C152.067 61.0076 151.265 60.9023 151.238 60.9418C151.002 61.3499 149.188 68.2748 148.544 71.2239C144.942 87.5882 144.758 104.334 147.952 128.493C148.123 129.835 148.334 131.468 148.426 132.139L148.583 133.337L149.438 133.509C151.883 133.956 155.142 135.141 156.667 136.128C157.627 136.747 158.021 137.392 158.376 138.893C158.718 140.341 159.112 143.093 159.322 145.463L159.493 147.345L161.675 147.253C162.871 147.2 163.883 147.121 163.923 147.069ZM180.235 144.541C182.377 144.08 185.006 141.948 187.188 138.893C188.174 137.524 189.028 135.812 189.107 135.036C189.239 133.904 188.516 133.048 187.293 132.89C186.57 132.798 182.851 133.495 179.144 134.43C175.056 135.444 169.693 137.3 169.378 137.814C169.272 137.998 172.309 140.736 174.701 142.606C177.198 144.554 178.316 144.949 180.235 144.541ZM150.134 142.988C152.145 141.487 154.419 139.341 155.668 137.761C155.892 137.471 155.892 137.471 154.879 136.971C152.829 135.997 150.844 135.391 147.742 134.812C145.902 134.456 145.1 134.509 144.627 134.983C144.325 135.286 144.285 135.418 144.298 136.221C144.338 137.708 144.956 139.617 146.139 141.855C146.585 142.711 146.914 143.146 147.348 143.475C148.202 144.133 148.728 144.041 150.134 142.988Z" fill="#1A1D22"/>
<path d="M73.2534 137.59C71.8601 136.484 70.9925 134.93 70.5062 132.653C70.2827 131.56 70.2433 129.019 70.4536 127.966C70.8085 126.123 71.5709 124.582 72.3333 124.201C72.7013 124.003 72.7539 124.003 73.0693 124.253C73.5688 124.622 73.5688 125.043 73.0299 125.728C72.3201 126.649 72.0046 127.768 71.9258 129.625C71.8075 132.745 72.6882 135.22 74.3838 136.431C75.133 136.984 75.2907 137.326 75.0015 137.774C74.6598 138.288 74.042 138.222 73.2534 137.59Z" fill="#1A1D22"/>
<path d="M54.9828 133.021C54.7856 132.719 54.7856 132.521 54.9039 131.152C55.1537 128.598 55.9686 125.873 57.1384 123.792C57.6905 122.805 58.9524 120.988 59.2547 120.764C59.7804 120.343 60.7006 120.843 60.5428 121.449C60.5034 121.62 60.1485 122.186 59.7542 122.7C58.9261 123.806 57.8745 125.78 57.3882 127.15C56.9676 128.321 56.5732 130.296 56.4549 131.784C56.3498 133.034 56.1658 133.364 55.5874 133.364C55.3245 133.364 55.1405 133.258 54.9828 133.021Z" fill="#1A1D22"/>
<path d="M162.858 102.61C161.714 102.307 160.768 101.767 159.901 100.911C159.125 100.135 158.126 98.6865 158.126 98.3178C158.126 97.9624 158.534 97.5543 158.888 97.5543C159.362 97.5543 159.441 97.6333 160.006 98.489C160.676 99.5027 161.662 100.398 162.569 100.819C164.015 101.478 166.118 101.241 167.945 100.187C168.773 99.7134 170.048 98.5417 170.692 97.6728C171.192 96.9882 171.599 96.7907 172.046 97.0145C172.467 97.2515 172.519 97.7386 172.204 98.2915C171.717 99.1209 170.863 100.042 169.903 100.78C167.669 102.478 165.001 103.176 162.858 102.61Z" fill="#1A1D22"/>
<path d="M159.651 92.1039C159.454 91.9196 159.309 91.7221 159.309 91.6563C159.309 91.5904 159.69 90.5899 160.15 89.4313C162.227 84.2311 163.91 77.9907 164.764 72.2112C165.106 70.0126 165.198 69.7756 165.816 69.7756C166.276 69.7756 166.578 70.2233 166.565 70.8683C166.499 72.3034 165.395 78.0566 164.619 80.9661C163.818 83.9546 162.7 87.4039 161.82 89.642C161.662 90.0238 161.557 90.3661 161.57 90.3792C161.596 90.3924 162.056 90.3266 162.595 90.2344C163.726 90.0238 167.643 89.8395 168.155 89.9711C168.852 90.1423 169.115 90.761 168.72 91.3008C168.563 91.5246 168.392 91.5509 167.248 91.5246C165.211 91.4588 162.49 91.7879 160.334 92.354C160.058 92.4198 159.914 92.3803 159.651 92.1039Z" fill="#1A1D22"/>
<path d="M158.06 79.8603C157.088 79.439 157.14 77.9909 158.139 77.4643C158.915 77.0693 159.809 77.5037 160.019 78.3595C160.15 78.9256 159.795 79.6233 159.257 79.8472C158.691 80.0841 158.573 80.0841 158.06 79.8603Z" fill="#1A1D22"/>
<path d="M175.529 79.8602C174.649 79.4653 174.635 78.0697 175.516 77.5431C176.265 77.0824 177.028 77.2798 177.396 78.0434C177.948 79.202 176.725 80.4 175.529 79.8602Z" fill="#1A1D22"/>
<path d="M193.379 233.604C193.129 233.433 193.09 233.288 193.09 232.524C193.09 230.378 193.747 222.808 194.667 214.396C196.166 200.664 196.455 196.781 196.573 188.065C196.639 183.826 196.665 183.313 196.862 183.168C197.112 182.983 197.546 182.944 197.769 183.102C198.177 183.365 198.229 183.813 198.203 187.104C198.137 195.346 197.782 200.625 196.507 212.289C195.482 221.663 194.97 227.205 194.72 231.642C194.641 233.038 194.588 233.248 194.326 233.512C193.971 233.867 193.773 233.893 193.379 233.604Z" fill="#1A1D22"/>
<path d="M104.721 66.0895C103.38 65.7472 102.171 64.7071 101.474 63.2721C100.725 61.7713 100.778 59.8097 101.606 58.1903C102.013 57.3872 102.999 56.413 103.866 55.9522C104.629 55.531 104.787 55.5046 105.878 55.4915C106.955 55.4915 107.139 55.5309 107.941 55.9259C109.111 56.5052 110.149 57.5584 110.767 58.8091C111.214 59.7175 111.254 59.8886 111.254 60.9419C111.267 61.9424 111.214 62.1794 110.846 62.9561C109.952 64.8651 108.23 66.0631 106.259 66.1553C105.68 66.1948 104.997 66.1553 104.721 66.0895ZM107.35 64.3122C109.216 63.5223 110.163 61.35 109.387 59.599C109.045 58.8354 108.178 57.8875 107.402 57.4267C106.101 56.6632 104.34 57.0844 103.406 58.401C102.552 59.599 102.342 60.8102 102.736 62.1399C102.999 63.0351 104.169 64.2595 104.957 64.4833C105.588 64.6545 106.706 64.5755 107.35 64.3122Z" fill="#1A1D22"/>
<path d="M88.0144 65.9315C86.2794 65.6945 84.5575 64.4833 83.7688 62.9298C83.4533 62.3111 83.4008 62.0477 83.4008 61.0735C83.4008 60.0466 83.4402 59.8755 83.8871 58.9671C84.7546 57.2161 86.3056 56.0049 88.159 55.6626C90.1832 55.294 92.5492 56.6105 93.5219 58.6643C94.4945 60.7312 94.1791 62.8772 92.6675 64.3912C91.4319 65.6287 89.7889 66.1685 88.0144 65.9315ZM90.4987 64.0225C91.1296 63.6934 91.892 62.9167 92.2206 62.2716C92.5755 61.5606 92.536 60.3889 92.1154 59.5069C91.4582 58.1113 90.4855 57.4004 89.1317 57.2951C88.3693 57.2424 88.1196 57.2819 87.5149 57.5584C86.1742 58.1772 85.3198 59.1909 85.0438 60.5206C84.7152 62.0214 85.7273 63.5354 87.5018 64.1937C88.2247 64.457 89.8283 64.3648 90.4987 64.0225Z" fill="#1A1D22"/>
<path d="M69.9279 65.747C67.7853 65.1678 66.1686 63.2983 66.0109 61.2313C65.9057 59.612 66.5629 57.9927 67.8511 56.8078C68.8237 55.9126 69.7175 55.5571 71.0583 55.5571C73.8186 55.5571 76.1714 57.4266 76.6446 60.007C77.0915 62.3767 75.2644 65.1151 72.7933 65.7734C71.9126 65.9972 70.848 65.9972 69.9279 65.747ZM73.0562 63.9302C74.2918 63.2983 75.0541 62.1003 75.0541 60.7574C75.0541 59.7173 74.7387 59.0591 73.8843 58.2955C72.6356 57.1633 71.0188 56.8342 69.7307 57.4529C68.2191 58.1638 67.299 60.0333 67.6802 61.5736C67.9825 62.7453 69.1918 63.9302 70.4142 64.2462C71.1766 64.4305 72.3464 64.2988 73.0562 63.9302Z" fill="#1A1D22"/>
</g>
<defs>
<clipPath id="clip0_219_5624">
<rect width="235.112" height="223" rx="35.623" fill="white"/>
</clipPath>
</defs>
</svg>
