<svg width="120" height="25" viewBox="0 0 120 25" fill="none" xmlns="http://www.w3.org/2000/svg">
<path d="M13.5932 6.92501C14.0285 6.92501 14.3847 7.08501 14.6617 7.40501C14.9387 7.70367 15.0772 8.08767 15.0772 8.55701V22.381C15.0772 22.8503 14.9387 23.245 14.6617 23.565C14.3847 23.8637 14.0285 24.013 13.5932 24.013C13.1777 24.013 12.8215 23.8637 12.5247 23.565C12.2477 23.245 12.1092 22.8503 12.1092 22.381V20.077L12.7325 20.173C12.7325 20.557 12.5841 20.9837 12.2873 21.453C12.0103 21.9223 11.6245 22.381 11.1298 22.829C10.6351 23.2557 10.0514 23.6183 9.37869 23.917C8.70595 24.1943 7.98374 24.333 7.21207 24.333C5.8468 24.333 4.62003 23.9597 3.53177 23.213C2.44351 22.445 1.5828 21.3997 0.949631 20.077C0.316462 18.7543 -0.00012207 17.2503 -0.00012207 15.565C-0.00012207 13.837 0.316462 12.3223 0.949631 11.021C1.5828 9.69834 2.43362 8.66367 3.50209 7.91701C4.59035 7.17034 5.79733 6.79701 7.12303 6.79701C7.97385 6.79701 8.75541 6.94634 9.46773 7.24501C10.1998 7.54367 10.833 7.92767 11.3672 8.39701C11.9015 8.86634 12.3071 9.36767 12.5841 9.90101C12.8809 10.413 13.0293 10.9037 13.0293 11.373L12.1092 11.469V8.55701C12.1092 8.10901 12.2477 7.72501 12.5247 7.40501C12.8215 7.08501 13.1777 6.92501 13.5932 6.92501ZM7.53854 21.389C8.46851 21.389 9.28965 21.133 10.002 20.621C10.7143 20.109 11.2683 19.4157 11.664 18.541C12.0598 17.645 12.2576 16.653 12.2576 15.565C12.2576 14.4557 12.0598 13.4637 11.664 12.589C11.2683 11.7143 10.7143 11.021 10.002 10.509C9.28965 9.99701 8.46851 9.74101 7.53854 9.74101C6.62836 9.74101 5.81712 9.99701 5.1048 10.509C4.41227 11.021 3.85825 11.7143 3.44273 12.589C3.047 13.4637 2.84914 14.4557 2.84914 15.565C2.84914 16.653 3.047 17.645 3.44273 18.541C3.85825 19.4157 4.41227 20.109 5.1048 20.621C5.81712 21.133 6.62836 21.389 7.53854 21.389Z" fill="#253439"/>
<path d="M22.4406 22.381C22.4406 22.8503 22.2922 23.245 21.9954 23.565C21.7184 23.8637 21.3721 24.013 20.9566 24.013C20.5411 24.013 20.1849 23.8637 19.8881 23.565C19.6111 23.245 19.4726 22.8503 19.4726 22.381V1.96501C19.4726 1.49567 19.621 1.11167 19.9178 0.813007C20.2146 0.493008 20.5707 0.333008 20.9863 0.333008C21.4216 0.333008 21.7678 0.493008 22.0251 0.813007C22.3021 1.11167 22.4406 1.49567 22.4406 1.96501V22.381Z" fill="#253439"/>
<path d="M30.0634 22.381C30.0634 22.8503 29.915 23.245 29.6182 23.565C29.3412 23.8637 28.9949 24.013 28.5794 24.013C28.1639 24.013 27.8077 23.8637 27.511 23.565C27.2339 23.245 27.0954 22.8503 27.0954 22.381V1.96501C27.0954 1.49567 27.2438 1.11167 27.5406 0.813007C27.8374 0.493008 28.1936 0.333008 28.6091 0.333008C29.0444 0.333008 29.3907 0.493008 29.6479 0.813007C29.9249 1.11167 30.0634 1.49567 30.0634 1.96501V22.381Z" fill="#253439"/>
<path d="M37.2707 22.381C37.2707 22.8503 37.1322 23.245 36.8552 23.565C36.5782 23.8637 36.222 24.013 35.7867 24.013C35.3712 24.013 35.0151 23.8637 34.7183 23.565C34.4413 23.245 34.3027 22.8503 34.3027 22.381V8.68501C34.3027 8.21567 34.4413 7.83167 34.7183 7.53301C35.0151 7.21301 35.3712 7.05301 35.7867 7.05301C36.222 7.05301 36.5782 7.21301 36.8552 7.53301C37.1322 7.83167 37.2707 8.21567 37.2707 8.68501V22.381ZM35.7571 4.94101C35.1833 4.94101 34.7677 4.83434 34.5105 4.62101C34.2533 4.38634 34.1247 4.00234 34.1247 3.46901V2.95701C34.1247 2.42367 34.2632 2.05034 34.5402 1.83701C34.8172 1.62367 35.2327 1.51701 35.7867 1.51701C36.3803 1.51701 36.8057 1.63434 37.063 1.86901C37.3202 2.08234 37.4488 2.44501 37.4488 2.95701V3.46901C37.4488 4.02367 37.3103 4.40767 37.0333 4.62101C36.7761 4.83434 36.3507 4.94101 35.7571 4.94101Z" fill="#253439"/>
<path d="M49.3063 6.79701C50.7112 6.79701 51.7994 7.11701 52.5711 7.75701C53.3428 8.37567 53.877 9.21834 54.1738 10.285C54.4904 11.3303 54.6487 12.5037 54.6487 13.805V22.381C54.6487 22.8503 54.5003 23.245 54.2035 23.565C53.9265 23.8637 53.5802 24.013 53.1647 24.013C52.7294 24.013 52.3733 23.8637 52.0962 23.565C51.8192 23.245 51.6807 22.8503 51.6807 22.381V13.837C51.6807 13.069 51.5818 12.3863 51.3839 11.789C51.1861 11.1703 50.8398 10.6797 50.3451 10.317C49.8703 9.93301 49.1975 9.74101 48.3269 9.74101C47.5157 9.74101 46.8034 9.93301 46.19 10.317C45.5766 10.6797 45.0918 11.1703 44.7357 11.789C44.3993 12.3863 44.2311 13.069 44.2311 13.837V22.381C44.2311 22.8503 44.0827 23.245 43.7859 23.565C43.5089 23.8637 43.1626 24.013 42.7471 24.013C42.3118 24.013 41.9557 23.8637 41.6786 23.565C41.4016 23.245 41.2631 22.8503 41.2631 22.381V8.81301C41.2631 8.34367 41.4016 7.95967 41.6786 7.66101C41.9557 7.34101 42.3118 7.18101 42.7471 7.18101C43.1626 7.18101 43.5089 7.34101 43.7859 7.66101C44.0827 7.95967 44.2311 8.34367 44.2311 8.81301V10.605L43.6969 10.925C43.8354 10.4557 44.0728 9.98634 44.4092 9.51701C44.7653 9.02634 45.1908 8.57834 45.6854 8.17301C46.1801 7.74634 46.7341 7.41567 47.3475 7.18101C47.9609 6.92501 48.6138 6.79701 49.3063 6.79701Z" fill="#253439"/>
<path d="M66.0411 0.365007C66.4171 0.365007 66.8029 0.418341 67.1986 0.525007C67.5943 0.631674 67.9208 0.813007 68.178 1.06901C68.4551 1.30367 68.5936 1.63434 68.5936 2.06101C68.5936 2.48767 68.4748 2.83967 68.2374 3.11701C68 3.37301 67.723 3.50101 67.4064 3.50101C67.2085 3.50101 66.9414 3.45834 66.605 3.37301C66.2686 3.26634 65.9323 3.21301 65.5959 3.21301C65.1408 3.21301 64.7748 3.33034 64.4978 3.56501C64.2207 3.77834 64.0229 4.05567 63.9042 4.39701C63.7854 4.71701 63.7261 5.03701 63.7261 5.35701V22.381C63.7261 22.8503 63.5777 23.245 63.2809 23.565C63.0039 23.8637 62.6576 24.013 62.2421 24.013C61.8068 24.013 61.4506 23.8637 61.1736 23.565C60.8966 23.245 60.7581 22.8503 60.7581 22.381V5.38901C60.7581 3.91701 61.2033 2.71167 62.0937 1.77301C63.0039 0.83434 64.3197 0.365007 66.0411 0.365007ZM66.6347 7.46901C67.0304 7.46901 67.3569 7.60767 67.6141 7.88501C67.8714 8.16234 68 8.51434 68 8.94101C68 9.36767 67.8714 9.71967 67.6141 9.99701C67.3569 10.2743 67.0304 10.413 66.6347 10.413H58.9476C58.5717 10.413 58.2452 10.2743 57.9682 9.99701C57.711 9.71967 57.5824 9.36767 57.5824 8.94101C57.5824 8.51434 57.711 8.16234 57.9682 7.88501C58.2452 7.60767 58.5717 7.46901 58.9476 7.46901H66.6347Z" fill="#D4A373"/>
<path d="M82.6064 7.18101C83.0219 7.18101 83.3681 7.34101 83.6452 7.66101C83.942 7.95967 84.0904 8.34367 84.0904 8.81301V17.229C84.0904 19.4477 83.5165 21.1863 82.3689 22.445C81.2213 23.6823 79.5988 24.301 77.5014 24.301C75.4239 24.301 73.8113 23.6823 72.6636 22.445C71.5358 21.1863 70.9719 19.4477 70.9719 17.229V8.81301C70.9719 8.34367 71.1104 7.95967 71.3874 7.66101C71.6644 7.34101 72.0206 7.18101 72.4559 7.18101C72.8714 7.18101 73.2177 7.34101 73.4947 7.66101C73.7915 7.95967 73.9399 8.34367 73.9399 8.81301V17.229C73.9399 18.6157 74.2367 19.6503 74.8303 20.333C75.4436 21.0157 76.334 21.357 77.5014 21.357C78.6886 21.357 79.5889 21.0157 80.2023 20.333C80.8157 19.6503 81.1224 18.6157 81.1224 17.229V8.81301C81.1224 8.34367 81.2609 7.95967 81.5379 7.66101C81.8149 7.34101 82.1711 7.18101 82.6064 7.18101Z" fill="#D4A373"/>
<path d="M96.2607 6.79701C97.6655 6.79701 98.7538 7.11701 99.5255 7.75701C100.297 8.37567 100.831 9.21834 101.128 10.285C101.445 11.3303 101.603 12.5037 101.603 13.805V22.381C101.603 22.8503 101.455 23.245 101.158 23.565C100.881 23.8637 100.535 24.013 100.119 24.013C99.6838 24.013 99.3276 23.8637 99.0506 23.565C98.7736 23.245 98.6351 22.8503 98.6351 22.381V13.837C98.6351 13.069 98.5361 12.3863 98.3383 11.789C98.1404 11.1703 97.7942 10.6797 97.2995 10.317C96.8246 9.93301 96.1519 9.74101 95.2813 9.74101C94.47 9.74101 93.7577 9.93301 93.1443 10.317C92.5309 10.6797 92.0462 11.1703 91.69 11.789C91.3536 12.3863 91.1854 13.069 91.1854 13.837V22.381C91.1854 22.8503 91.037 23.245 90.7402 23.565C90.4632 23.8637 90.117 24.013 89.7015 24.013C89.2662 24.013 88.91 23.8637 88.633 23.565C88.356 23.245 88.2175 22.8503 88.2175 22.381V8.81301C88.2175 8.34367 88.356 7.95967 88.633 7.66101C88.91 7.34101 89.2662 7.18101 89.7015 7.18101C90.117 7.18101 90.4632 7.34101 90.7402 7.66101C91.037 7.95967 91.1854 8.34367 91.1854 8.81301V10.605L90.6512 10.925C90.7897 10.4557 91.0272 9.98634 91.3635 9.51701C91.7197 9.02634 92.1451 8.57834 92.6398 8.17301C93.1344 7.74634 93.6884 7.41567 94.3018 7.18101C94.9152 6.92501 95.5682 6.79701 96.2607 6.79701Z" fill="#D4A373"/>
<path d="M118.516 0.333008C118.951 0.333008 119.307 0.482341 119.584 0.781008C119.861 1.07967 120 1.47434 120 1.96501V22.381C120 22.8503 119.861 23.245 119.584 23.565C119.307 23.8637 118.951 24.013 118.516 24.013C118.1 24.013 117.744 23.8637 117.447 23.565C117.17 23.245 117.032 22.8503 117.032 22.381V20.077L117.655 20.109C117.655 20.493 117.507 20.9303 117.21 21.421C116.933 21.8903 116.547 22.349 116.052 22.797C115.558 23.245 114.974 23.6183 114.301 23.917C113.629 24.1943 112.906 24.333 112.135 24.333C110.769 24.333 109.543 23.9597 108.454 23.213C107.366 22.445 106.505 21.4103 105.872 20.109C105.239 18.7863 104.923 17.2717 104.923 15.565C104.923 13.8583 105.239 12.3543 105.872 11.053C106.505 9.73034 107.356 8.69567 108.425 7.94901C109.513 7.18101 110.72 6.79701 112.046 6.79701C112.877 6.79701 113.648 6.94634 114.361 7.24501C115.093 7.54367 115.726 7.92767 116.26 8.39701C116.794 8.86634 117.21 9.36767 117.507 9.90101C117.804 10.413 117.952 10.9037 117.952 11.373L117.032 11.469V1.96501C117.032 1.49567 117.17 1.11167 117.447 0.813007C117.744 0.493008 118.1 0.333008 118.516 0.333008ZM112.461 21.389C113.411 21.389 114.232 21.133 114.925 20.621C115.637 20.109 116.191 19.4157 116.587 18.541C116.982 17.6663 117.18 16.6743 117.18 15.565C117.18 14.4557 116.982 13.4637 116.587 12.589C116.191 11.7143 115.637 11.021 114.925 10.509C114.212 9.99701 113.391 9.74101 112.461 9.74101C111.551 9.74101 110.74 9.99701 110.027 10.509C109.335 11.021 108.781 11.7143 108.365 12.589C107.97 13.4637 107.772 14.4557 107.772 15.565C107.772 16.6743 107.97 17.6663 108.365 18.541C108.781 19.4157 109.335 20.109 110.027 20.621C110.74 21.133 111.551 21.389 112.461 21.389Z" fill="#D4A373"/>
</svg>
