<svg width="20" height="20" viewBox="0 0 20 20" fill="none" xmlns="http://www.w3.org/2000/svg">
<path d="M2.29169 9.61466C2.29169 10.5763 2.4811 11.5286 2.84911 12.417C3.21712 13.3055 3.75652 14.1128 4.43652 14.7927C5.11652 15.4727 5.92379 16.0121 6.81224 16.3802C7.7007 16.7482 8.65294 16.9376 9.6146 16.9376C10.5763 16.9376 11.5285 16.7482 12.417 16.3802C13.3054 16.0121 14.1127 15.4727 14.7927 14.7927C15.4727 14.1128 16.0121 13.3055 16.3801 12.417C16.7481 11.5286 16.9375 10.5763 16.9375 9.61466C16.9375 8.65301 16.7481 7.70076 16.3801 6.81231C16.0121 5.92385 15.4727 5.11658 14.7927 4.43658C14.1127 3.75658 13.3054 3.21718 12.417 2.84917C11.5285 2.48116 10.5763 2.29175 9.6146 2.29175C8.65294 2.29175 7.7007 2.48116 6.81224 2.84917C5.92379 3.21718 5.11652 3.75658 4.43652 4.43658C3.75652 5.11658 3.21712 5.92385 2.84911 6.81231C2.4811 7.70076 2.29169 8.65301 2.29169 9.61466Z" stroke="#D4A373" stroke-width="1.5"/>
<path d="M15.0104 15.0105L17.7084 17.7084" stroke="#D4A373" stroke-width="1.5" stroke-linecap="round"/>
</svg>
