<svg width="113" height="329" viewBox="0 0 113 329" fill="none" xmlns="http://www.w3.org/2000/svg">
<g clip-path="url(#clip0_206_4948)">
<path d="M60.5266 134.122C59.9598 133.752 59.1314 132.967 58.6736 132.378C57.0386 130.22 53.398 125.511 52.9838 125.054C52.744 124.77 52.5914 124.552 52.6568 124.552C52.7004 124.552 51.981 123.506 51.0436 122.22C50.128 120.912 49.0598 119.429 48.6674 118.884C47.8826 117.794 42.28 109.401 40.7104 107.003C39.228 104.692 37.4622 101.793 36.6338 100.289C35.6964 98.5447 34.5846 97.1931 33.5818 96.5391C32.6662 95.9505 30.4644 95.5581 28.0228 95.5581C26.3442 95.5581 20.3492 95.0567 17.428 94.6861C16.5342 94.5771 13.831 94.3155 11.433 94.1411C6.33177 93.7269 5.04557 93.4217 3.86837 92.3099C2.18977 90.7403 1.90637 88.8655 0.925369 73.6491C0.445769 66.1717 0.380369 41.7339 0.816369 33.1011C1.33957 22.5063 2.05897 11.1703 2.29877 9.44811C2.80017 5.91651 4.56597 4.54311 9.31837 3.99811C20.1312 2.73371 30.399 1.75271 36.612 1.38211C38.7048 1.25131 40.7758 1.09871 41.19 1.05511C41.6042 0.989715 45.2884 0.837113 49.3868 0.706313C56.8642 0.466513 70.293 0.662715 79.013 1.16411C81.0622 1.27311 85.0298 1.46931 87.842 1.60011C90.6542 1.73091 93.9024 1.94892 95.036 2.10152C96.1696 2.23232 97.216 2.36311 97.325 2.36311C97.4558 2.36311 97.5866 2.40672 97.652 2.49392C97.7174 2.55932 98.1316 2.82091 98.5894 3.10431C100.464 4.25971 100.878 5.80751 101.685 15.0071C101.859 17.0563 102.077 19.1055 102.121 19.5851C102.448 22.1139 103.276 34.5181 103.756 43.8921C104.323 54.9447 104.563 74.3249 104.214 83.3501C104.061 87.7319 103.974 88.3859 103.538 89.4105C102.928 90.8275 101.75 91.8739 100.203 92.3753C98.2406 93.0293 88.8666 93.6615 75.307 94.0539C66.1074 94.3373 65.4316 94.4463 64.6904 95.6889C64.189 96.5391 64.1454 98.1959 63.971 117.358C63.8838 126.187 63.753 132.269 63.6004 132.902C63.3824 133.97 62.6194 134.798 61.9 134.798C61.7038 134.798 61.0716 134.493 60.5266 134.122ZM52.0028 81.5189C52.8312 80.6905 52.9402 79.9493 52.3734 78.9683C52.1772 78.6413 51.7194 78.2053 51.3488 78.0309C50.782 77.7693 50.6076 77.7475 50.1062 78.0309C49.365 78.4015 48.602 79.3607 48.602 79.9057C48.602 80.9739 49.801 82.2383 50.8692 82.2601C51.0872 82.2601 51.5886 81.9331 52.0028 81.5189ZM50.782 68.0029C50.782 65.3651 51.1962 62.5093 51.763 61.0051C52.6132 58.7161 54.3354 56.4925 58.3684 52.3723C62.663 48.0123 64.2762 45.9849 65.6714 43.1509C68.0912 38.2459 68.2874 34.9541 66.4344 31.0301C63.2516 24.3375 53.5942 20.9585 46.749 24.1413C41.844 26.4085 38.6394 31.9457 39.4024 36.8289C39.8384 39.5321 41.7786 43.5869 42.171 42.5623C42.2364 42.3879 42.0402 41.6685 41.735 40.9709C39.6422 36.2621 40.2962 30.9647 43.3264 27.6947C44.7434 26.2123 45.877 25.4711 47.7954 24.8171C49.2342 24.3375 49.8228 24.2721 52.3734 24.2721C54.5752 24.2721 55.7088 24.3811 57.0168 24.7081C61.3768 25.8199 64.5596 28.4359 65.8676 32.0111C66.2382 33.0575 66.3254 33.8205 66.3472 35.8261C66.3472 38.8345 65.9984 40.3823 64.6468 43.1291C63.317 45.8323 61.8782 47.6635 58.5428 50.9771C51.5886 57.8659 49.9318 60.7435 49.5612 66.7167C49.4304 68.6133 49.474 69.0275 49.7792 69.5071C50.3896 70.4445 50.782 69.8777 50.782 68.0029Z" fill="#F9BD21"/>
<g clip-path="url(#clip1_206_4948)">
<path d="M15.9674 329.232C15.7058 329.145 15.4006 328.884 15.2916 328.666C14.8556 327.859 13.8746 315.629 13.4822 306.146C13.1116 296.838 13.4822 284.259 14.376 275.735C14.6812 272.988 14.921 272.095 15.5532 271.332C16.0328 270.743 16.0546 270.503 16.1854 266.252C16.2726 263.789 16.4906 259.821 16.665 257.423C17.0356 252.714 17.3408 251.559 18.409 250.992C18.736 250.818 18.954 250.513 18.954 250.229C18.954 249.205 20.0876 237.433 20.7198 232.135C23.096 211.6 27.238 189.298 32.143 170.441C33.7126 164.424 34.2576 163.095 35.9798 161.285C37.5058 159.672 39.1408 158.909 41.081 158.887C42.2146 158.887 42.8468 159.018 43.5226 159.345L44.4382 159.803L45.2012 158.582C46.1822 156.969 47.5556 155.639 48.9072 154.963C50.3242 154.244 52.3952 154.222 53.7686 154.876C54.6624 155.312 56.886 157.492 56.886 157.95C56.886 158.081 57.4092 157.688 58.0414 157.1C59.7636 155.465 60.3958 155.203 62.445 155.181C64.516 155.181 65.4534 155.552 66.8704 156.991C67.3936 157.514 67.8514 157.906 67.8732 157.863C67.895 157.819 68.1566 156.969 68.4182 155.944C70.184 149.252 77.923 125.817 79.2092 123.288C80.0158 121.675 81.3892 120.301 82.8716 119.56C85.7492 118.121 88.9102 119.015 90.7632 121.827C92.2892 124.094 92.311 124.378 92.2892 135.452C92.2456 145.873 92.0494 152.129 91.3082 165.384C91.0684 169.787 90.894 173.58 90.9376 173.798C90.9812 174.125 91.766 173.559 94.6 171.161C98.8946 167.52 100.399 166.43 102.208 165.558C104.039 164.708 105.369 164.533 106.917 164.991C109.402 165.711 110.819 167.825 110.797 170.768C110.776 173.755 111.255 172.861 96.235 198.236C92.0058 205.365 87.8638 212.406 86.9918 213.889L85.444 216.57L85.553 218.685C85.6184 219.84 85.7056 223.35 85.771 226.445C85.8364 229.563 86.0544 238.108 86.098 238.13C86.1198 238.174 86.6658 236.478 87.3634 235.366C95.5 220 111.5 208.509 130.243 205.539C131.704 205.234 130.047 202.814 130.287 202.814C130.635 202.814 130.744 202.574 130.941 201.31C131.42 198.28 133.23 195.664 135.737 194.399C136.87 193.854 137.219 193.789 139.072 193.789C140.86 193.789 141.339 193.876 142.56 194.399C144.718 195.315 144.566 195.337 145.176 193.942C146.288 191.304 150.299 188.077 152.937 187.641C154.31 187.423 154.397 187.336 154.005 186.268C153.591 185.091 153.591 184.48 153.983 183.521C154.637 181.995 156.447 181.494 158.365 182.322C159.782 182.933 159.869 182.911 159.695 181.843C159.15 178.398 158.06 167.498 157.602 160.74C156.752 147.965 156.73 131.724 157.602 118.557C158.234 108.747 159.804 95.2312 161.199 87.2742C161.373 86.2496 161.526 85.3122 161.526 85.1814C161.526 85.0288 160.414 84.8326 158.648 84.68C157.079 84.5274 155.662 84.353 155.509 84.2876C155.357 84.244 155.139 83.917 154.986 83.59C154.768 83.0667 154.877 82.609 155.64 80.2764C158.343 72.1668 163.728 64.4714 170.573 58.956C176.197 54.4216 183.391 50.9554 189.997 49.6038C199.567 47.62 207.568 49.0152 213.824 53.7022C215.568 55.0102 217.683 57.2774 218.315 58.4764C218.598 59.0432 218.751 59.0868 220.212 59.2176C225.596 59.6318 231.09 64.2315 233.226 70.1829C235.297 75.8945 235.363 79.4698 233.728 102.97C233.117 111.908 232.267 124.465 231.831 130.874C231.417 137.283 231.024 143.039 230.959 143.649L230.85 144.739H233.422C235.581 144.761 236.235 144.848 237.761 145.349C239.832 146.025 242.426 147.66 243.603 149.034C247.156 153.154 247.789 159.607 245.151 164.839C242.513 170.071 236.474 173.733 229.869 174.104L228.125 174.213L227.754 177.548C227.558 179.379 227.427 180.927 227.449 180.971C227.493 181.014 228.147 180.927 228.888 180.796C230.479 180.513 231.373 180.731 232.245 181.646C233.444 182.889 233.183 184.698 231.613 186.442C231.155 186.944 230.828 187.38 230.872 187.423C230.915 187.467 231.439 187.598 232.027 187.75C235.559 188.622 238.872 191.718 240.137 195.337C240.529 196.427 240.551 196.449 241.096 196.165C241.401 196.013 242.164 195.773 242.796 195.642C246.655 194.835 251.189 196.165 253.936 198.89C255.353 200.307 256.857 202.967 257.119 204.493L257.25 205.343L259.735 205.256C262.547 205.147 264.553 205.496 267.256 206.564C273.382 208.984 278.003 213.867 287.203 227.666C305.493 255.069 315.717 281.316 319.467 310.506C320.339 317.33 321.08 327.336 320.819 328.426C320.535 329.559 318.639 329.647 318.399 328.557C318.333 328.273 318.181 326.246 318.05 324.022C316.088 290.516 305.755 260.453 285.895 230.5C276.87 216.897 272.815 212.254 267.583 209.638C264.422 208.046 260.651 207.458 257.817 208.133C255.092 208.766 254.917 208.678 254.612 206.193C253.98 201.266 250.296 198.149 245.129 198.149C243.08 198.149 241.794 198.52 240.507 199.544C239.744 200.133 238.785 200.111 238.393 199.501C238.24 199.217 238.044 198.476 237.979 197.822C237.695 195.424 235.842 192.546 233.749 191.326C233.226 191.02 232.202 190.584 231.482 190.366C228.932 189.582 229.52 189.189 222.195 196.47C218.577 200.046 215.198 203.294 214.653 203.664C211.622 205.735 207.982 205.125 205.191 202.051C203.774 200.525 200.592 196.318 199.349 194.378C198.869 193.615 198.433 193.004 198.368 193.004C198.303 193.026 196.428 196.906 194.182 201.681L190.106 210.335L189.779 213.278C188.798 221.78 188.667 224.854 188.689 240.419C188.711 251.646 188.82 258.557 189.168 267.669C189.844 285.262 190.128 298.124 190.04 307.302L189.975 315.346L189.452 315.76C188.82 316.283 188.514 316.283 187.926 315.804C187.468 315.411 187.468 315.368 187.381 301.568C187.315 293.96 187.185 284.935 187.054 281.512C186.923 278.09 186.64 270.939 186.443 265.598C186.204 259.102 186.073 250.905 186.051 240.746C186.051 225.072 186.182 221.715 187.054 213.91L187.468 210.052L186.465 208.351C185.92 207.414 184.089 204.253 182.41 201.31C180.732 198.367 179.315 195.904 179.293 195.882C179.249 195.838 177.418 197.604 175.216 199.806C170.486 204.558 169.766 205.038 167.063 205.169C165.494 205.256 165.123 205.19 164.098 204.733C162.093 203.817 161.482 202.989 158.91 197.778C157.624 195.184 156.294 192.328 155.967 191.478L155.378 189.909L154.354 190.061C150.953 190.541 147.77 193.527 146.898 197.037C146.549 198.454 146.353 198.825 145.852 198.999C145.372 199.152 144.326 198.694 143.868 198.127C143.04 197.124 139.791 196.122 138.265 196.405C135.344 196.928 133.513 199.479 133.578 202.967C133.622 204.951 133.535 205.016 130.243 205.539C111.669 208.482 95.1668 220.036 87.2316 235.623C86.6212 236.822 86.1198 237.956 86.098 238.13C86.0544 238.305 86.0544 240.332 86.0762 242.643L86.098 246.807L87.079 247.286C89.0628 248.245 89.1936 248.856 89.586 260.257L89.8476 267.211L90.676 268.018C91.7878 269.108 91.8968 269.697 92.311 277.915C93.0522 292.281 94.6436 311.553 96.0388 322.932C96.344 325.396 96.6056 327.685 96.6056 328.012C96.6274 328.775 96.126 329.32 95.363 329.32C94.0332 329.32 94.0114 329.167 92.747 317.482C91.5262 306.015 90.2182 289.186 89.4988 275.866C89.15 269.086 89.3462 269.457 86.1198 269.609C84.9644 269.675 81.7162 269.784 78.904 269.849C64.1672 270.198 39.1626 271.419 23.3358 272.574C18.8014 272.901 17.7332 273.032 17.5152 273.315C17.2318 273.73 17.101 274.689 16.665 280.095C15.5968 293.393 15.7494 306.081 17.2536 322.889C17.5806 326.66 17.6678 328.513 17.5152 328.753C17.21 329.232 16.5342 329.45 15.9674 329.232ZM25.6684 269.74C42.6724 268.585 60.5048 267.713 79.9722 267.124C83.8526 267.015 87.0572 266.884 87.1008 266.841C87.2098 266.732 86.752 254.72 86.5558 252.235C86.4468 250.861 86.2506 249.968 86.0544 249.771C85.7928 249.51 84.6156 249.51 77.16 249.793C61.0934 250.404 46.0078 251.188 30.944 252.191C21.0468 252.845 20.1094 252.932 19.8478 253.259C19.608 253.543 18.9976 261.238 18.8014 266.427C18.6706 269.915 18.6924 270.176 19.0412 270.176C19.2592 270.176 22.2458 269.98 25.6684 269.74ZM33.451 249.357C44.1984 248.66 59.9598 247.831 71.056 247.395C75.9174 247.221 80.7134 247.003 81.7162 246.937L83.5474 246.807L83.3948 240.223C83.3294 236.626 83.2204 231.852 83.155 229.628C83.0896 227.405 83.0024 223.393 82.9152 220.69L82.8062 215.785L86.8174 208.918C89.041 205.125 92.529 199.195 94.6 195.729C99.4614 187.554 106.394 175.717 107.026 174.496C107.811 172.926 108.138 171.815 108.138 170.616C108.16 167.062 105.108 166.408 101.293 169.155C100.682 169.591 96.8018 172.817 92.638 176.327C88.4742 179.837 84.8554 182.824 84.6156 182.954C84.0706 183.238 83.1768 182.954 82.9588 182.431C82.5882 181.45 82.828 181.101 85.4004 178.921L87.9728 176.72L88.2344 172.599C89.4334 153.241 90.131 130.089 89.6078 126.449C89.2808 124.073 88.4088 122.59 86.9264 121.805C85.0734 120.824 82.5446 122.285 81.3674 124.988C80.8224 126.253 77.0946 136.978 75.4596 141.992C73.4976 148.031 72.2332 152.195 70.7726 157.448L69.5954 161.699L70.2276 163.552C71.3612 166.931 71.7318 169.22 71.8626 173.602C72.0588 180.862 70.9252 184.568 67.7642 186.835C65.6714 188.339 63.208 188.47 60.7664 187.184C60.1342 186.857 59.5456 186.551 59.4584 186.508C59.3494 186.464 59.284 186.595 59.284 186.791C59.284 186.987 58.7172 187.729 58.0196 188.404C57.0168 189.429 56.559 189.712 55.6434 189.93C53.5724 190.432 51.2616 189.603 49.6048 187.772C49.147 187.271 48.7546 186.9 48.7328 186.944C48.711 186.966 48.493 187.511 48.275 188.099C47.6864 189.734 46.1604 191.151 44.569 191.5C40.8848 192.328 38.4432 189.603 37.375 183.543C36.9608 181.145 36.8954 178.289 37.266 177.853C37.4186 177.679 37.8546 177.526 38.2688 177.526C39.2716 177.526 39.664 178.158 39.664 179.837C39.664 180.578 39.8166 182.017 39.991 183.042C40.645 186.791 41.9094 188.949 43.4136 188.949C44.9614 188.949 45.8334 187.816 46.2476 185.265C46.531 183.608 45.7026 168.959 45.2012 166.583C44.6344 163.814 43.806 162.441 42.3454 161.787C41.2772 161.329 40.536 161.394 39.2062 162.07C37.1788 163.095 36.285 165.035 34.4102 172.403C28.4152 195.991 24.0988 221.366 22.1368 244.452C21.9406 246.676 21.7226 248.878 21.679 249.335L21.5482 250.186L23.3576 250.055C24.3604 249.968 28.8948 249.662 33.451 249.357ZM190.847 202.531C195.905 191.674 196.341 190.846 197.779 189.407C199.763 187.423 201.856 186.486 206.652 185.396C210.053 184.611 217.596 182.998 222.784 181.93L224.637 181.559L225.16 176.872C225.487 173.733 225.771 172.076 225.967 171.836C226.228 171.553 226.882 171.466 229.28 171.379C231.896 171.291 232.507 171.182 234.185 170.616C235.232 170.245 236.649 169.613 237.325 169.22C238.938 168.261 241.314 166.016 242.208 164.642C243.799 162.135 244.497 158.56 243.93 155.683C242.753 149.6 236.256 145.916 230.261 147.9C229.302 148.205 228.583 148.031 228.299 147.399C228.147 147.05 228.234 144.804 228.583 139.703C229.237 130.264 229.259 130.743 228.517 130.569C228.169 130.482 227.013 129.98 225.901 129.457C218.642 125.947 213.345 118.492 211.47 109.183C210.881 106.284 210.511 101.183 210.663 98.6102C211.077 92.3972 211.819 86.7945 212.996 81.3009C213.345 79.6223 213.606 78.2272 213.563 78.1836C213.519 78.1618 212.167 78.576 210.554 79.0992C201.965 81.9986 191.85 84.0259 181.473 84.8979C179.685 85.0505 175.064 85.1814 171.205 85.2032H164.207L163.946 86.7292C159.477 114.459 158.452 140.335 160.785 167.28C161.526 175.891 162.551 183.979 162.921 184.153C163.052 184.197 166.278 185.527 170.072 187.075C173.887 188.622 177.418 190.17 177.898 190.519C179.903 191.914 180.775 193.091 184.721 199.98C186.858 203.686 188.667 206.738 188.732 206.738C188.82 206.716 189.757 204.842 190.847 202.531ZM168.698 202.117C169.679 201.637 175.238 196.296 176.742 194.378L177.462 193.462L176.503 192.808C175.979 192.459 173.843 191.478 171.75 190.628C169.657 189.8 165.428 188.077 162.311 186.813C159.215 185.549 156.599 184.568 156.49 184.611C156.294 184.742 157.231 187.576 158.518 190.606C160.131 194.399 163.27 200.721 163.88 201.375C165.101 202.662 166.976 202.945 168.698 202.117ZM212.712 201.724C213.083 201.484 215.459 199.326 217.944 196.95C224.114 191.064 230.697 183.826 230.283 183.434C229.913 183.085 205.475 188.186 203.077 189.102C201.834 189.56 200.33 190.519 200.33 190.846C200.33 191.108 202.139 193.811 203.883 196.165C206.151 199.195 207.829 201.092 208.723 201.637C209.857 202.313 211.666 202.356 212.712 201.724ZM56.1448 186.66C56.4282 186.399 56.8206 185.723 57.0386 185.178C58.085 182.453 56.8642 166.692 55.142 160.936C53.616 155.813 49.7792 155.704 47.0542 160.74L46.4002 161.939L46.9452 163.138C47.8172 165.078 48.1442 167.389 48.602 174.714C48.9944 181.145 49.0598 181.712 49.583 182.889C51.3052 186.813 54.2264 188.47 56.1448 186.66ZM66.1728 184.677C68.4618 183.129 69.4428 179.641 69.2466 173.602C69.1376 169.613 68.4836 166.299 67.0884 162.746C66.151 160.326 65.2572 158.974 64.08 158.168C62.0308 156.773 58.739 158.887 58.4556 161.787C58.412 162.353 58.5646 164.097 58.8262 165.645C59.4802 169.831 59.938 174.474 60.0906 179.009C60.2432 183.543 60.374 183.957 62.009 184.873C63.3606 185.636 64.843 185.549 66.1728 184.677Z" fill="#1A1D22"/>
</g>
<path d="M55.1202 216.352C54.6624 215.981 54.6188 215.741 54.5316 213.343C54.1174 201.506 61.4422 191.042 72.7564 187.358C74.6094 186.747 78.4898 186.028 79.9286 186.028C80.8224 186.028 81.52 186.595 81.52 187.314C81.52 188.295 80.975 188.578 78.4898 188.862C70.2494 189.799 63.3606 194.486 59.8072 201.549C57.8234 205.517 56.9732 209.288 57.1694 213.452C57.2784 215.698 57.2566 215.959 56.8642 216.352C56.341 216.875 55.7742 216.875 55.1202 216.352Z" fill="#1A1D22"/>
<path d="M49.2124 82.5649C48.384 82.1289 47.948 81.1915 47.948 79.8399C47.948 78.8589 48.0352 78.6409 48.6674 78.0087C49.8882 76.7879 51.5014 76.7225 52.6132 77.8343C54.5098 79.7309 53.3762 82.9355 50.8256 82.9137C50.2588 82.8919 49.5394 82.7611 49.2124 82.5649Z" fill="#1A1D22"/>
<path d="M49.256 70.3352C48.7982 69.7466 48.7764 69.5722 48.8854 66.7818C49.1688 60.1982 50.673 57.4732 57.8888 50.3228C61.2242 47.0092 62.663 45.178 63.9928 42.4748C65.2354 39.946 65.6932 38.1584 65.6714 35.8258C65.6496 31.7492 63.4914 28.5228 59.4148 26.4736C56.1884 24.8386 51.5668 24.4244 48.4494 25.4708C44.9396 26.648 42.4544 29.3294 41.517 32.9264C40.9066 35.2808 41.2118 37.7006 42.5198 40.6218C43.2828 42.3222 43.2392 43.1506 42.3672 43.4776C41.5388 43.761 40.9066 43.216 40.0346 41.4502C36.2196 33.7112 40.2744 24.7732 48.602 22.5932C50.673 22.0482 54.488 22.1136 56.886 22.724C61.5948 23.923 65.3444 26.7352 67.0884 30.3758C69.0504 34.496 68.8106 38.7906 66.3472 43.7828C64.9302 46.6386 63.3388 48.666 59.0224 53.026C54.9894 57.1462 53.2672 59.3698 52.417 61.6588C51.8066 63.2284 51.3924 66.4766 51.4796 68.722C51.545 69.9428 51.4796 70.139 51.0218 70.5096C50.3242 71.0764 49.801 71.0328 49.256 70.3352Z" fill="#1A1D22"/>
</g>
<defs>
<clipPath id="clip0_206_4948">
<rect width="113" height="329" fill="white"/>
</clipPath>
<clipPath id="clip1_206_4948">
<rect width="100" height="280" fill="white" transform="translate(13 49)"/>
</clipPath>
</defs>
</svg>
