<svg width="20" height="20" viewBox="0 0 20 20" fill="none" xmlns="http://www.w3.org/2000/svg">
<path d="M4.53125 2.96875H15.4688C15.4688 2.96875 17.0312 2.96875 17.0312 4.53125V15.4688C17.0312 15.4688 17.0312 17.0312 15.4688 17.0312H4.53125C4.53125 17.0312 2.96875 17.0312 2.96875 15.4688V4.53125C2.96875 4.53125 2.96875 2.96875 4.53125 2.96875Z" stroke="#D4A373" stroke-width="1.5" stroke-linecap="round" stroke-linejoin="round"/>
<path d="M2.96875 7.65625C2.96875 7.24185 3.13337 6.84442 3.4264 6.5514C3.71942 6.25837 4.11685 6.09375 4.53125 6.09375H15.4688C15.8832 6.09375 16.2806 6.25837 16.5736 6.5514C16.8666 6.84442 17.0312 7.24185 17.0312 7.65625" stroke="#D4A373" stroke-width="1.5" stroke-linecap="round" stroke-linejoin="round"/>
<path d="M2.96875 9.21875H5.3125C5.9375 9.21875 6.5625 9.45312 6.95312 9.92188L7.8125 10.625C9.0625 11.875 11.0156 11.875 12.2656 10.625L13.125 9.92188C13.5156 9.53125 14.1406 9.21875 14.7656 9.21875H17.0312" stroke="#D4A373" stroke-width="1.5" stroke-linecap="round" stroke-linejoin="round"/>
</svg>
